<?xml version="1.0" encoding="UTF-8" standalone="no"?>
<!-- Created with Inkscape (http://www.inkscape.org/) -->

<svg
   xmlns:dc="http://purl.org/dc/elements/1.1/"
   xmlns:cc="http://creativecommons.org/ns#"
   xmlns:rdf="http://www.w3.org/1999/02/22-rdf-syntax-ns#"
   xmlns:svg="http://www.w3.org/2000/svg"
   xmlns="http://www.w3.org/2000/svg"
   xmlns:sodipodi="http://sodipodi.sourceforge.net/DTD/sodipodi-0.dtd"
   xmlns:inkscape="http://www.inkscape.org/namespaces/inkscape"
   width="144.49777mm"
   height="144.49777mm"
   viewBox="0 0 511.99998 511.99998"
   id="svg4148"
   version="1.1"
   inkscape:version="0.91 r13725"
   sodipodi:docname="basket.svg">
  <defs
     id="defs4150">
    <pattern
       y="0"
       x="0"
       height="6"
       width="6"
       patternUnits="userSpaceOnUse"
       id="EMFhbasepattern" />
  </defs>
  <sodipodi:namedview
     id="base"
     pagecolor="#ffffff"
     bordercolor="#666666"
     borderopacity="1.0"
     inkscape:pageopacity="0.0"
     inkscape:pageshadow="2"
     inkscape:zoom="0.70710678"
     inkscape:cx="4.5465272"
     inkscape:cy="214.72905"
     inkscape:document-units="px"
     inkscape:current-layer="layer1"
     showgrid="false"
     inkscape:window-width="1366"
     inkscape:window-height="715"
     inkscape:window-x="-8"
     inkscape:window-y="-8"
     inkscape:window-maximized="1"
     fit-margin-top="0"
     fit-margin-left="0"
     fit-margin-right="0"
     fit-margin-bottom="0"
     inkscape:snap-to-guides="false"
     inkscape:snap-bbox="false"
     inkscape:bbox-nodes="false"
     inkscape:snap-nodes="true"
     inkscape:snap-global="true"
     showguides="true" />
  <metadata
     id="metadata4153">
    <rdf:RDF>
      <cc:Work
         rdf:about="">
        <dc:format>image/svg+xml</dc:format>
        <dc:type
           rdf:resource="http://purl.org/dc/dcmitype/StillImage" />
        <dc:title />
      </cc:Work>
    </rdf:RDF>
  </metadata>
  <g
     inkscape:label="Layer 1"
     inkscape:groupmode="layer"
     id="layer1"
     transform="translate(-91.214475,-152.15558)">
    <path
       style="color:#000000;font-style:normal;font-variant:normal;font-weight:normal;font-stretch:normal;font-size:medium;line-height:normal;font-family:sans-serif;text-indent:0;text-align:start;text-decoration:none;text-decoration-line:none;text-decoration-style:solid;text-decoration-color:#000000;letter-spacing:normal;word-spacing:normal;text-transform:none;direction:ltr;block-progression:tb;writing-mode:lr-tb;baseline-shift:baseline;text-anchor:start;white-space:normal;clip-rule:nonzero;display:inline;overflow:visible;visibility:visible;opacity:1;isolation:auto;mix-blend-mode:normal;color-interpolation:sRGB;color-interpolation-filters:linearRGB;solid-color:#000000;solid-opacity:1;fill:#000000;fill-opacity:1;fill-rule:evenodd;stroke:none;stroke-width:30;stroke-linecap:round;stroke-linejoin:round;stroke-miterlimit:4;stroke-dasharray:none;stroke-dashoffset:0;stroke-opacity:1;color-rendering:auto;image-rendering:auto;shape-rendering:auto;text-rendering:auto;enable-background:accumulate"
       d="m 119.47192,158.15721 c -8.41714,-0.12293 -15.30809,6.66398 -15.31232,15.08201 -0.004,8.41803 6.8797,15.21184 15.29697,15.09736 l 50.70546,0.0241 13.01141,45.12757 39.17681,146.20949 0,1.18664 0.31804,0 21.33547,79.62799 c -1.85908,8.68319 -2.64583,16.40269 -1.95654,23.76799 0.79222,8.46518 4.04127,16.83759 9.97133,22.82481 11.86011,11.97442 27.88842,12.56789 45.06177,11.83354 34.34669,-1.46875 81.87414,-11.82176 141.00448,-11.09217 l 77.43457,0.95853 c 8.40982,0.21456 15.3709,-6.49023 15.47463,-14.90214 0.10377,-8.41193 -6.68919,-15.28433 -15.10175,-15.27723 l -77.43457,-0.95195 c -62.79479,-0.77482 -113.63426,9.87051 -142.66491,11.11191 -14.51532,0.62069 -21.42921,-2.00429 -22.33347,-2.91726 -0.45213,-0.45649 -1.04133,-0.94666 -1.36431,-4.39783 -0.19404,-2.07338 0.69648,-19.78907 1.23271,-23.66707 l 244.01002,-29.99513 c 5.91199,-0.72677 10.85693,-4.83561 12.61659,-10.52626 l 16.03396,-51.88333 0.26759,0 0,-0.86421 43.33116,-131.14283 c 2.99594,-9.70102 -4.24896,-19.53206 -14.40204,-19.54344 l -366.36599,-0.35094 -12.80523,-44.40594 c -1.86271,-6.45746 -7.77121,-10.90416 -14.49197,-10.90792 l -62.04987,-0.0263 z m 149.4755,385.64621 a 57.175601,57.175601 0 0 0 -57.17388,57.17608 57.175601,57.175601 0 0 0 57.17388,57.17607 57.175601,57.175601 0 0 0 57.17607,-57.17607 57.175601,57.175601 0 0 0 -57.17607,-57.17608 z m 223.93797,0 a 57.175601,57.175601 0 0 0 -57.17608,57.17608 57.175601,57.175601 0 0 0 57.17608,57.17607 57.175601,57.175601 0 0 0 57.17607,-57.17607 57.175601,57.175601 0 0 0 -57.17607,-57.17608 z"
       id="path4135"
       inkscape:connector-curvature="0" />
  </g>
</svg>
