<?xml version="1.0" encoding="UTF-8" standalone="no"?>
<!-- Created with Inkscape (http://www.inkscape.org/) -->

<svg
   xmlns:dc="http://purl.org/dc/elements/1.1/"
   xmlns:cc="http://creativecommons.org/ns#"
   xmlns:rdf="http://www.w3.org/1999/02/22-rdf-syntax-ns#"
   xmlns:svg="http://www.w3.org/2000/svg"
   xmlns="http://www.w3.org/2000/svg"
   xmlns:sodipodi="http://sodipodi.sourceforge.net/DTD/sodipodi-0.dtd"
   xmlns:inkscape="http://www.inkscape.org/namespaces/inkscape"
   width="512"
   height="512"
   viewBox="0 0 512.00001 512.00001"
   id="svg2"
   version="1.1"
   inkscape:version="0.91 r13725"
   sodipodi:docname="Periwinkle - Kopya.svg">
  <defs
     id="defs4">
    <clipPath
       clipPathUnits="userSpaceOnUse"
       id="clipPath7556">
      <path
         style="opacity:1;fill:#6bb18c;fill-opacity:1;fill-rule:nonzero;stroke:none;stroke-width:15;stroke-linecap:round;stroke-linejoin:round;stroke-miterlimit:4;stroke-dasharray:none;stroke-dashoffset:0;stroke-opacity:1"
         d="m -134.79536,926.81359 c -7.13162,14.59711 -15.69127,33.37969 -38.00699,40.91124 -11.15786,3.76578 -21.25939,4.26365 -28.57147,2.02428 -3.65603,-1.11969 -10.90041,0.64779 -12.94506,-1.77415 -2.04466,-2.42182 1.11041,-9.03306 1.11043,-12.62457 6e-5,-14.36571 15.91725,-30.62401 38.44182,-37.5056 17.5864,-5.37291 29.67079,-0.98247 37.05355,1.01143 7.12266,1.92364 6.67801,0.26076 2.91772,7.95737 z"
         id="path7558"
         inkscape:connector-curvature="0"
         sodipodi:nodetypes="ssssssss"
         clip-path="none"
         mask="none" />
    </clipPath>
    <mask
       maskUnits="userSpaceOnUse"
       id="mask7582">
      <path
         sodipodi:nodetypes="ccccc"
         inkscape:connector-curvature="0"
         id="path7584"
         d="m -789.9642,647.58325 c -80.5326,73.16964 -71.64761,219.88701 -64.00761,276.30615 l 13.56592,-1.8378 c -6.96153,-51.40893 -21.34368,-192.00385 63.11629,-269.28977 z"
         style="color:#000000;font-style:normal;font-variant:normal;font-weight:normal;font-stretch:normal;font-size:medium;line-height:normal;font-family:sans-serif;text-indent:0;text-align:start;text-decoration:none;text-decoration-line:none;text-decoration-style:solid;text-decoration-color:#000000;letter-spacing:normal;word-spacing:normal;text-transform:none;direction:ltr;block-progression:tb;writing-mode:lr-tb;baseline-shift:baseline;text-anchor:start;white-space:normal;clip-rule:nonzero;display:inline;overflow:visible;visibility:visible;opacity:1;isolation:auto;mix-blend-mode:normal;color-interpolation:sRGB;color-interpolation-filters:linearRGB;solid-color:#000000;solid-opacity:1;fill:#ef9688;fill-opacity:1;fill-rule:evenodd;stroke:none;stroke-width:15;stroke-linecap:butt;stroke-linejoin:miter;stroke-miterlimit:4;stroke-dasharray:none;stroke-dashoffset:0;stroke-opacity:1;color-rendering:auto;image-rendering:auto;shape-rendering:auto;text-rendering:auto;enable-background:accumulate"
         mask="none" />
    </mask>
    <clipPath
       clipPathUnits="userSpaceOnUse"
       id="clipPath4240">
      <path
         sodipodi:nodetypes="ssszs"
         inkscape:connector-curvature="0"
         id="path4242"
         d="m 310.0309,725.36218 c 0,41.5321 -23.04887,73.16222 -45.98496,72.93902 -22.62509,-0.22018 -45.98496,-28.41692 -45.98496,-72.93902 0,-48.06128 33.86037,-72.93902 45.98496,-72.93902 12.12459,0 45.98496,27.70616 45.98496,72.93902 z"
         style="opacity:1;fill:#ffffff;fill-opacity:0.99215686;fill-rule:nonzero;stroke:#ffeeaa;stroke-width:1.12196672;stroke-linecap:round;stroke-linejoin:round;stroke-miterlimit:4;stroke-dasharray:none;stroke-dashoffset:0;stroke-opacity:0.99215686" />
    </clipPath>
    <clipPath
       clipPathUnits="userSpaceOnUse"
       id="clipPath7556-2">
      <path
         style="opacity:1;fill:#6bb18c;fill-opacity:1;fill-rule:nonzero;stroke:none;stroke-width:15;stroke-linecap:round;stroke-linejoin:round;stroke-miterlimit:4;stroke-dasharray:none;stroke-dashoffset:0;stroke-opacity:1"
         d="m -134.79536,926.81359 c -7.13162,14.59711 -15.69127,33.37969 -38.00699,40.91124 -11.15786,3.76578 -21.25939,4.26365 -28.57147,2.02428 -3.65603,-1.11969 -10.90041,0.64779 -12.94506,-1.77415 -2.04466,-2.42182 1.11041,-9.03306 1.11043,-12.62457 6e-5,-14.36571 15.91725,-30.62401 38.44182,-37.5056 17.5864,-5.37291 29.67079,-0.98247 37.05355,1.01143 7.12266,1.92364 6.67801,0.26076 2.91772,7.95737 z"
         id="path7558-3"
         inkscape:connector-curvature="0"
         sodipodi:nodetypes="ssssssss"
         clip-path="none"
         mask="none" />
    </clipPath>
    <clipPath
       clipPathUnits="userSpaceOnUse"
       id="clipPath4296">
      <path
         style="opacity:1;fill:#6bb18c;fill-opacity:1;fill-rule:nonzero;stroke:none;stroke-width:15;stroke-linecap:round;stroke-linejoin:round;stroke-miterlimit:4;stroke-dasharray:none;stroke-dashoffset:0;stroke-opacity:1"
         d="m -134.79536,926.81359 c -7.13162,14.59711 -15.69127,33.37969 -38.00699,40.91124 -11.15786,3.76578 -21.25939,4.26365 -28.57147,2.02428 -3.65603,-1.11969 -10.90041,0.64779 -12.94506,-1.77415 -2.04466,-2.42182 1.11041,-9.03306 1.11043,-12.62457 6e-5,-14.36571 15.91725,-30.62401 38.44182,-37.5056 17.5864,-5.37291 29.67079,-0.98247 37.05355,1.01143 7.12266,1.92364 6.67801,0.26076 2.91772,7.95737 z"
         id="path4298"
         inkscape:connector-curvature="0"
         sodipodi:nodetypes="ssssssss"
         clip-path="none"
         mask="none" />
    </clipPath>
    <clipPath
       clipPathUnits="userSpaceOnUse"
       id="clipPath4287">
      <path
         style="opacity:1;fill:#ff2ad4;fill-opacity:0.99215686;fill-rule:nonzero;stroke:none;stroke-width:1;stroke-linecap:round;stroke-linejoin:round;stroke-miterlimit:4;stroke-dasharray:none;stroke-dashoffset:0;stroke-opacity:0.99215686"
         d="m 263.72206,714.66993 c -12.72089,-1.29475 -26.06266,3.28743 -30.98629,14.65778 -4.65363,10.74682 7.19068,21.67495 13.14029,36.37858 3.03988,7.51266 4.12864,15.50387 4.47086,21.53596 -4.66963,-3.62418 -11.18414,-9.28589 -16.61976,-16.27306 -9.68335,-12.44736 -11.57836,-27.96597 -25.86576,-29.94613 -24.52472,-3.399 -43.03554,36.2373 -24.81124,53.02964 8.61247,7.93575 22.83404,0.35516 38.67704,-0.41568 9.73864,-0.47381 19.20521,1.94479 25.06592,3.88057 -4.68515,3.48679 -12.74732,8.88041 -22.03407,12.4896 -14.69928,5.71271 -30.11128,3.08468 -36.10048,16.20643 -10.28061,22.52384 22.39391,51.61059 43.70232,38.95914 10.06997,-5.97882 6.87984,-21.77583 10.67881,-37.17592 2.39314,-9.70115 7.6174,-18.26544 11.15928,-23.28103 1.88575,5.59973 4.34605,14.41996 4.95802,23.82083 1.02446,15.73704 -6.12011,29.6434 4.59107,39.3037 18.38603,16.58217 55.95766,-5.82461 50.30499,-29.9525 -2.67133,-11.40239 -18.6955,-13.11354 -32.23851,-21.37076 -8.14638,-4.9669 -14.51386,-12.07252 -18.31002,-16.96006 5.89079,-0.57203 14.74185,-0.94906 23.73591,0.47891 15.57528,2.47284 27.56256,12.51011 39.34801,4.19421 20.23004,-14.27445 6.66531,-55.86365 -18.11515,-55.67359 -11.71079,0.0898 -16.91628,15.34162 -27.958,26.7291 -5.8133,5.99534 -12.92158,10.29542 -18.36704,13.03851 1.9399,-5.37907 4.8996,-12.28478 9.08414,-18.75938 8.56018,-13.2449 22.58656,-20.14952 19.74695,-34.29121 -2.43714,-12.1373 -14.5364,-19.3089 -27.25729,-20.60364 z"
         id="path4289"
         inkscape:connector-curvature="0" />
    </clipPath>
    <filter
       inkscape:collect="always"
       style="color-interpolation-filters:sRGB"
       id="filter4203"
       x="-0.19404255"
       width="1.3880851"
       y="-0.086857143"
       height="1.1737143">
      <feGaussianBlur
         inkscape:collect="always"
         stdDeviation="0.475"
         id="feGaussianBlur4205" />
    </filter>
  </defs>
  <sodipodi:namedview
     id="base"
     pagecolor="#ffffff"
     bordercolor="#666666"
     borderopacity="1.0"
     inkscape:pageopacity="0.0"
     inkscape:pageshadow="2"
     inkscape:zoom="1"
     inkscape:cx="285.69954"
     inkscape:cy="236.70095"
     inkscape:document-units="px"
     inkscape:current-layer="layer1"
     showgrid="false"
     units="px"
     showborder="true"
     inkscape:showpageshadow="false"
     showguides="false"
     inkscape:window-width="1366"
     inkscape:window-height="715"
     inkscape:window-x="-8"
     inkscape:window-y="-8"
     inkscape:window-maximized="1" />
  <metadata
     id="metadata7">
    <rdf:RDF>
      <cc:Work
         rdf:about="">
        <dc:format>image/svg+xml</dc:format>
        <dc:type
           rdf:resource="http://purl.org/dc/dcmitype/StillImage" />
        <dc:title />
      </cc:Work>
    </rdf:RDF>
  </metadata>
  <g
     inkscape:label="Layer 1"
     inkscape:groupmode="layer"
     id="layer1"
     transform="translate(0,-540.36216)">
    <g
       id="g4286"
       transform="translate(0,4.9999999e-6)">
      <path
         style="opacity:1;fill:#ffe9aa;fill-opacity:0.99215686;fill-rule:nonzero;stroke:none;stroke-width:6;stroke-linecap:round;stroke-linejoin:round;stroke-miterlimit:4;stroke-dasharray:none;stroke-dashoffset:0;stroke-opacity:1"
         d="m 506,796.36211 c 10e-6,138.0712 -111.9288,250.00009 -250,250.00009 -20.588,0 -40.59491,-2.4882 -59.736,-7.181 -4.14697,-1.0168 -8.25319,-2.1372 -12.316,-3.358 C 81.000949,1004.8905 5.99999,909.38486 6,796.36211 c 10e-6,-138.07119 111.92881,-250 250,-250 138.07119,0 250,111.92881 250,250 z"
         id="path4287"
         inkscape:connector-curvature="0"
         sodipodi:nodetypes="sssssss" />
      <path
         inkscape:connector-curvature="0"
         id="path4199"
         d="m 246.9363,779.29769 2.1274,99.91574"
         style="fill:#9f002f;fill-opacity:1;fill-rule:evenodd;stroke:#9f002f;stroke-width:1.87440312;stroke-linecap:round;stroke-linejoin:round;stroke-miterlimit:4;stroke-dasharray:none;stroke-opacity:1" />
      <ellipse
         ry="6.5625"
         rx="2.9375"
         cy="886.15338"
         cx="248.96652"
         id="path4201"
         style="opacity:1;fill:#ffffff;fill-opacity:1;fill-rule:nonzero;stroke:none;stroke-width:2;stroke-linecap:round;stroke-linejoin:round;stroke-miterlimit:4;stroke-dasharray:none;stroke-dashoffset:0;stroke-opacity:1;filter:url(#filter4203)" />
      <path
         style="fill:#9f002f;fill-opacity:1;fill-rule:evenodd;stroke:#9f002f;stroke-width:1.87440312;stroke-linecap:round;stroke-linejoin:round;stroke-miterlimit:4;stroke-dasharray:none;stroke-opacity:1"
         d="m 243.46362,779.52786 -11.10019,99.32003"
         id="path4213"
         inkscape:connector-curvature="0" />
      <ellipse
         transform="matrix(0.99122299,0.13220056,-0.13220056,0.99122299,101.71827,-25.57504)"
         style="opacity:1;fill:#ffffff;fill-opacity:1;fill-rule:nonzero;stroke:none;stroke-width:2;stroke-linecap:round;stroke-linejoin:round;stroke-miterlimit:4;stroke-dasharray:none;stroke-dashoffset:0;stroke-opacity:1;filter:url(#filter4203)"
         id="ellipse4215"
         cx="248.96652"
         cy="886.15338"
         rx="2.9375"
         ry="6.5625" />
      <path
         inkscape:connector-curvature="0"
         id="path4219"
         d="m 251.75912,779.31057 4.67478,99.82899"
         style="fill:#9f002f;fill-opacity:1;fill-rule:evenodd;stroke:#9f002f;stroke-width:1.87440312;stroke-linecap:round;stroke-linejoin:round;stroke-miterlimit:4;stroke-dasharray:none;stroke-opacity:1" />
      <ellipse
         transform="matrix(0.99967477,-0.02550223,0.02550223,0.99967477,-14.970701,6.5637593)"
         ry="6.5625"
         rx="2.9375"
         cy="886.15338"
         cx="248.96652"
         id="ellipse4221"
         style="opacity:1;fill:#ffffff;fill-opacity:1;fill-rule:nonzero;stroke:none;stroke-width:2;stroke-linecap:round;stroke-linejoin:round;stroke-miterlimit:4;stroke-dasharray:none;stroke-dashoffset:0;stroke-opacity:1;filter:url(#filter4203)" />
      <path
         style="fill:#9f002f;fill-opacity:1;fill-rule:evenodd;stroke:#9f002f;stroke-width:1.87440312;stroke-linecap:round;stroke-linejoin:round;stroke-miterlimit:4;stroke-dasharray:none;stroke-opacity:1"
         d="m 256.78585,779.07232 13.64573,99.00239"
         id="path4225"
         inkscape:connector-curvature="0" />
      <ellipse
         transform="matrix(0.99842409,-0.05611911,0.05611911,0.99842409,-27.178781,14.011991)"
         style="opacity:1;fill:#ffffff;fill-opacity:1;fill-rule:nonzero;stroke:none;stroke-width:2;stroke-linecap:round;stroke-linejoin:round;stroke-miterlimit:4;stroke-dasharray:none;stroke-dashoffset:0;stroke-opacity:1;filter:url(#filter4203)"
         id="ellipse4227"
         cx="248.96652"
         cy="886.15338"
         rx="2.9375"
         ry="6.5625" />
      <path
         sodipodi:nodetypes="cccccc"
         inkscape:connector-curvature="0"
         id="path4231"
         d="m 252.07018,546.43235 c -1.07175,21.04754 -0.41389,42.09509 1.81401,63.14263 l -1.99609,0.0977 c -1.87085,-20.87721 -2.91153,-41.90537 -2.19743,-63.25257 0.84233,-0.004 1.5648,-0.005 2.37951,0.0122 z"
         style="color:#000000;font-style:normal;font-variant:normal;font-weight:normal;font-stretch:normal;font-size:medium;line-height:normal;font-family:sans-serif;text-indent:0;text-align:start;text-decoration:none;text-decoration-line:none;text-decoration-style:solid;text-decoration-color:#000000;letter-spacing:normal;word-spacing:normal;text-transform:none;direction:ltr;block-progression:tb;writing-mode:lr-tb;baseline-shift:baseline;text-anchor:start;white-space:normal;clip-rule:nonzero;display:inline;overflow:visible;visibility:visible;opacity:1;isolation:auto;mix-blend-mode:normal;color-interpolation:sRGB;color-interpolation-filters:linearRGB;solid-color:#000000;solid-opacity:1;fill:#410133;fill-opacity:1;fill-rule:evenodd;stroke:none;stroke-width:2;stroke-linecap:butt;stroke-linejoin:miter;stroke-miterlimit:4;stroke-dasharray:none;stroke-dashoffset:0;stroke-opacity:1;color-rendering:auto;image-rendering:auto;shape-rendering:auto;text-rendering:auto;enable-background:accumulate" />
      <path
         sodipodi:nodetypes="sssss"
         inkscape:connector-curvature="0"
         id="path4184"
         d="m 266.27817,640.82665 c 0,-22.64367 -6.04693,-33.5 -13.01953,-33.5 -6.9726,0 -12.23047,10.85633 -12.23047,33.5 0,22.64367 6.04693,25.5 13.01953,25.5 6.9726,0 12.23047,-2.85633 12.23047,-25.5 z"
         style="opacity:1;fill:#410033;fill-opacity:0.99215686;fill-rule:nonzero;stroke:none;stroke-width:1;stroke-linecap:round;stroke-linejoin:round;stroke-miterlimit:4;stroke-dasharray:none;stroke-dashoffset:0;stroke-opacity:1" />
      <path
         style="opacity:1;fill:#bc204c;fill-opacity:0.9921568;fill-rule:nonzero;stroke:none;stroke-width:1;stroke-linecap:round;stroke-linejoin:round;stroke-miterlimit:4;stroke-dasharray:none;stroke-dashoffset:0;stroke-opacity:1"
         d="m 268.77817,697.74874 c -3.75,-36.64367 -7.66344,-33.5 -16.5,-33.5 -8.83656,0 -9.90901,-3.99722 -13.90901,33.14645 3.07552,17.7635 6.07245,25.85355 14.90901,25.85355 8.83656,0 10.93392,-4.57233 15.5,-25.5 z"
         id="path4187"
         inkscape:connector-curvature="0"
         sodipodi:nodetypes="cscsc" />
      <path
         sodipodi:nodetypes="sscss"
         inkscape:connector-curvature="0"
         id="path4189"
         d="m 266.36278,761.59717 c 6.40006,-39.80842 -3.20069,-43.14037 -13.98413,-44.5943 -14.59343,-1.96763 -21.83167,0.55143 -18.14031,41.10243 0.36939,24.39058 3.209,25.85811 13.93055,26.39364 16.43013,0.82067 14.57612,-0.39922 18.19389,-22.90177 z"
         style="opacity:1;fill:#441650;fill-opacity:0.99215686;fill-rule:nonzero;stroke:none;stroke-width:1;stroke-linecap:round;stroke-linejoin:round;stroke-miterlimit:4;stroke-dasharray:none;stroke-dashoffset:0;stroke-opacity:1" />
      <path
         sodipodi:nodetypes="sssss"
         inkscape:connector-curvature="0"
         id="path4191"
         d="m 247.22833,750.26202 c 17.33502,-32.50105 8.53277,-33.28919 0.67776,-37.33685 -7.85501,-4.04767 -9.87805,-9.82248 -27.54705,23.09346 -8.52639,15.88399 -63.44451,37.26332 -55.5895,41.31099 7.85501,4.04766 72.37828,-8.16787 82.45879,-27.0676 z"
         style="opacity:1;fill:#c01d45;fill-opacity:0.9921568;fill-rule:nonzero;stroke:none;stroke-width:1;stroke-linecap:round;stroke-linejoin:round;stroke-miterlimit:4;stroke-dasharray:none;stroke-dashoffset:0;stroke-opacity:1" />
      <path
         sodipodi:nodetypes="sssss"
         inkscape:connector-curvature="0"
         id="path4193"
         d="m 292.94457,784.10521 c -15.19946,-33.20849 -9.99773,-73.95486 -34.831,-73.24074 -8.83291,0.254 -13.57661,-3.11969 -11.18479,34.16209 1.15421,17.99079 15.12283,40.66234 21.6996,46.56411 87.67286,78.6746 39.78325,26.30773 24.31619,-7.48546 z"
         style="opacity:1;fill:#c6204d;fill-opacity:0.9921568;fill-rule:nonzero;stroke:none;stroke-width:1;stroke-linecap:round;stroke-linejoin:round;stroke-miterlimit:4;stroke-dasharray:none;stroke-dashoffset:0;stroke-opacity:1" />
      <path
         sodipodi:nodetypes="scscs"
         inkscape:connector-curvature="0"
         id="path4274"
         d="m 275.18567,769.3654 c 17.07133,26.67036 36.98321,52.65919 36.66591,52.65927 -0.3173,1.1e-4 -20.48515,-29.85679 -36.73286,-53.60565 -14.76534,-21.58213 -18.52215,-28.34689 -18.20485,-28.34678 0.3173,8e-5 4.51276,7.79756 18.2718,29.29316 z"
         style="opacity:0.6;fill:#ffffff;fill-opacity:0.9921568;fill-rule:nonzero;stroke:none;stroke-width:2;stroke-linecap:butt;stroke-linejoin:miter;stroke-miterlimit:4;stroke-dasharray:none;stroke-dashoffset:0;stroke-opacity:1" />
      <path
         style="opacity:0.6;fill:#ffffff;fill-opacity:0.9921568;fill-rule:nonzero;stroke:none;stroke-width:2;stroke-linecap:butt;stroke-linejoin:miter;stroke-miterlimit:4;stroke-dasharray:none;stroke-dashoffset:0;stroke-opacity:1"
         d="m 269.68567,771.1154 c 17.19633,27.04536 36.98321,52.65919 36.66591,52.65927 -0.3173,1.1e-4 -20.48515,-29.85679 -36.73286,-53.60565 -14.76534,-21.58213 -18.52215,-28.34689 -18.20485,-28.34678 0.3173,8e-5 4.57781,7.75606 18.2718,29.29316 z"
         id="path4276"
         inkscape:connector-curvature="0"
         sodipodi:nodetypes="scscs" />
      <path
         style="opacity:1;fill:#d2204c;fill-opacity:0.9921568;fill-rule:nonzero;stroke:none;stroke-width:1;stroke-linecap:round;stroke-linejoin:round;stroke-miterlimit:4;stroke-dasharray:none;stroke-dashoffset:0;stroke-opacity:1"
         d="m 306.44457,760.60521 c -28.78672,-22.47559 -24.99773,-50.95486 -49.831,-50.24074 -8.83291,0.254 -13.57661,-3.11969 -11.18479,34.16209 1.15421,17.99079 37.59075,22.57099 46.1996,24.56411 157.87751,36.55181 46.01159,15.87073 14.81619,-8.48546 z"
         id="path4195"
         inkscape:connector-curvature="0"
         sodipodi:nodetypes="sssss" />
      <path
         sodipodi:nodetypes="scscs"
         inkscape:connector-curvature="0"
         id="path4257"
         d="m 245.86682,688.44147 c 0,10.83699 1.80528,19.55963 1.48798,19.55971 -0.3173,1.1e-4 -2.44953,-8.41009 -2.44953,-19.24721 0,-10.83713 2.13223,-19.99733 2.44953,-19.99722 0.3173,8e-5 -1.48798,8.84772 -1.48798,19.68472 z"
         style="opacity:0.6;fill:#ffffff;fill-opacity:0.9921568;fill-rule:nonzero;stroke:none;stroke-width:2;stroke-linecap:butt;stroke-linejoin:miter;stroke-miterlimit:4;stroke-dasharray:none;stroke-dashoffset:0;stroke-opacity:1" />
      <path
         style="opacity:0.6;fill:#ffffff;fill-opacity:0.9921568;fill-rule:nonzero;stroke:none;stroke-width:2;stroke-linecap:butt;stroke-linejoin:miter;stroke-miterlimit:4;stroke-dasharray:none;stroke-dashoffset:0;stroke-opacity:1"
         d="m 261.03053,688.26469 c 0,10.83699 -1.80528,19.55963 -1.48798,19.55971 0.3173,1.1e-4 2.44953,-8.41009 2.44953,-19.24721 0,-10.83713 -2.13223,-19.99733 -2.44953,-19.99722 -0.3173,8e-5 1.48798,8.84772 1.48798,19.68472 z"
         id="path4260"
         inkscape:connector-curvature="0"
         sodipodi:nodetypes="scscs" />
      <path
         sodipodi:nodetypes="scscs"
         inkscape:connector-curvature="0"
         id="path4262"
         d="m 249.76277,688.32719 c 0,10.83699 -0.43028,19.49713 -0.11298,19.49721 0.3173,1.1e-4 0.88703,-8.72259 0.88703,-19.55971 0,-10.83713 -0.56973,-19.68483 -0.88703,-19.68472 -0.3173,8e-5 0.11298,8.91022 0.11298,19.74722 z"
         style="opacity:0.6;fill:#ffffff;fill-opacity:0.9921568;fill-rule:nonzero;stroke:none;stroke-width:2;stroke-linecap:butt;stroke-linejoin:miter;stroke-miterlimit:4;stroke-dasharray:none;stroke-dashoffset:0;stroke-opacity:1" />
      <path
         style="opacity:0.6;fill:#ffffff;fill-opacity:0.9921568;fill-rule:nonzero;stroke:none;stroke-width:2;stroke-linecap:butt;stroke-linejoin:miter;stroke-miterlimit:4;stroke-dasharray:none;stroke-dashoffset:0;stroke-opacity:1"
         d="m 254.99132,688.68075 c 0,10.83699 -0.43028,19.49713 -0.11298,19.49721 0.3173,1.1e-4 0.88703,-8.72259 0.88703,-19.55971 0,-10.83713 -0.56973,-19.68483 -0.88703,-19.68472 -0.3173,8e-5 0.11298,8.91022 0.11298,19.74722 z"
         id="path4264"
         inkscape:connector-curvature="0"
         sodipodi:nodetypes="scscs" />
      <path
         style="opacity:0.6;fill:#ffffff;fill-opacity:0.9921568;fill-rule:nonzero;stroke:none;stroke-width:2;stroke-linecap:butt;stroke-linejoin:miter;stroke-miterlimit:4;stroke-dasharray:none;stroke-dashoffset:0;stroke-opacity:1"
         d="m 220.06428,744.3654 c -19.69633,26.42036 -47.98321,28.15919 -47.66591,28.15927 0.3173,1.1e-4 31.48515,-5.35679 47.73286,-29.10565 14.76534,-21.58213 18.52215,-28.34689 18.20485,-28.34678 -0.3173,8e-5 -3.01762,8.83144 -18.2718,29.29316 z"
         id="path4266"
         inkscape:connector-curvature="0"
         sodipodi:nodetypes="scscs" />
      <path
         sodipodi:nodetypes="scscs"
         inkscape:connector-curvature="0"
         id="path4268"
         d="m 230.2311,747.88317 c -16.14377,28.72907 -51.65003,26.14142 -51.33273,26.1415 0.3173,1.1e-4 38.15954,-0.65903 50.51579,-26.64594 10.34592,-21.75891 16.48922,-30.5566 16.17192,-30.55649 -0.3173,8e-5 -3.45956,9.8921 -15.35498,31.06093 z"
         style="opacity:0.6;fill:#ffffff;fill-opacity:0.9921568;fill-rule:nonzero;stroke:none;stroke-width:2;stroke-linecap:butt;stroke-linejoin:miter;stroke-miterlimit:4;stroke-dasharray:none;stroke-dashoffset:0;stroke-opacity:1" />
      <path
         sodipodi:nodetypes="scscs"
         inkscape:connector-curvature="0"
         id="path4270"
         d="m 279.42757,743.65829 c 19.69633,26.42036 47.98321,28.15919 47.66591,28.15927 -0.3173,1.1e-4 -31.48515,-5.35679 -47.73286,-29.10565 -14.76534,-21.58213 -18.52215,-28.34689 -18.20485,-28.34678 0.3173,8e-5 3.01762,8.83144 18.2718,29.29316 z"
         style="opacity:0.6;fill:#ffffff;fill-opacity:0.9921568;fill-rule:nonzero;stroke:none;stroke-width:2;stroke-linecap:butt;stroke-linejoin:miter;stroke-miterlimit:4;stroke-dasharray:none;stroke-dashoffset:0;stroke-opacity:1" />
      <path
         style="opacity:0.6;fill:#ffffff;fill-opacity:0.9921568;fill-rule:nonzero;stroke:none;stroke-width:2;stroke-linecap:butt;stroke-linejoin:miter;stroke-miterlimit:4;stroke-dasharray:none;stroke-dashoffset:0;stroke-opacity:1"
         d="m 263.61386,747.62796 c 10.50394,15.63698 54.25098,24.18952 53.93368,24.1896 -0.3173,1.1e-4 -43.3151,-10.40273 -52.49174,-24.07532 -14.57285,-21.71257 -13.76327,-33.37722 -13.44597,-33.37711 0.3173,8e-5 -2.2273,12.07696 12.00403,33.26283 z"
         id="path4272"
         inkscape:connector-curvature="0"
         sodipodi:nodetypes="scscs" />
    </g>
  </g>
</svg>
