<?xml version="1.0" encoding="UTF-8" standalone="no"?>
<!-- Created with Inkscape (http://www.inkscape.org/) -->

<svg
   xmlns:dc="http://purl.org/dc/elements/1.1/"
   xmlns:cc="http://creativecommons.org/ns#"
   xmlns:rdf="http://www.w3.org/1999/02/22-rdf-syntax-ns#"
   xmlns:svg="http://www.w3.org/2000/svg"
   xmlns="http://www.w3.org/2000/svg"
   xmlns:sodipodi="http://sodipodi.sourceforge.net/DTD/sodipodi-0.dtd"
   xmlns:inkscape="http://www.inkscape.org/namespaces/inkscape"
   width="144.49777mm"
   height="144.49777mm"
   viewBox="0 0 511.99998 511.99998"
   id="svg4148"
   version="1.1"
   inkscape:version="0.91 r13725"
   sodipodi:docname="ok.svg">
  <defs
     id="defs4150">
    <pattern
       y="0"
       x="0"
       height="6"
       width="6"
       patternUnits="userSpaceOnUse"
       id="EMFhbasepattern" />
  </defs>
  <sodipodi:namedview
     id="base"
     pagecolor="#ffffff"
     bordercolor="#666666"
     borderopacity="1.0"
     inkscape:pageopacity="0.0"
     inkscape:pageshadow="2"
     inkscape:zoom="1"
     inkscape:cx="-0.29159"
     inkscape:cy="264.43318"
     inkscape:document-units="px"
     inkscape:current-layer="layer1"
     showgrid="false"
     inkscape:window-width="1366"
     inkscape:window-height="715"
     inkscape:window-x="-8"
     inkscape:window-y="-8"
     inkscape:window-maximized="1"
     fit-margin-top="0"
     fit-margin-left="0"
     fit-margin-right="0"
     fit-margin-bottom="0"
     inkscape:snap-to-guides="false"
     inkscape:snap-bbox="false"
     inkscape:bbox-nodes="false"
     inkscape:snap-nodes="true"
     inkscape:snap-global="true" />
  <metadata
     id="metadata4153">
    <rdf:RDF>
      <cc:Work
         rdf:about="">
        <dc:format>image/svg+xml</dc:format>
        <dc:type
           rdf:resource="http://purl.org/dc/dcmitype/StillImage" />
        <dc:title />
      </cc:Work>
    </rdf:RDF>
  </metadata>
  <g
     inkscape:label="Layer 1"
     inkscape:groupmode="layer"
     id="layer1"
     transform="translate(-91.214475,-152.15558)">
    <path
       style="opacity:1;fill:#000000;fill-opacity:1;fill-rule:evenodd;stroke:none;stroke-width:69.18900299;stroke-linecap:butt;stroke-linejoin:round;stroke-miterlimit:4;stroke-dasharray:none;stroke-opacity:1"
       d="m 349.02088,158.16172 c -2.13567,-0.0144 -4.27826,-0.004 -6.42586,0.0362 C 205.14794,160.73823 95.539608,273.77628 97.233842,411.23563 98.927173,548.6951 211.2877,658.9981 348.75575,658.15072 486.22316,657.30329 597.21498,545.62449 597.21447,408.15527 l -0.0763,-6.16071 C 593.80384,266.71473 483.56845,159.06983 349.02088,158.16172 Z m 106.4338,130.86281 38.08782,31.95944 -141.14943,168.21239 -31.95952,38.08773 0,0.002 -38.08591,-31.95944 -81.46281,-68.35726 31.9576,-38.08583 81.46472,68.35537 141.14753,-168.21431 z m 84.53364,180.654 0.061,0 c -0.59539,1.80583 -1.20666,3.6048 -1.85395,5.38824 -0.49014,1.39895 -1.00795,2.78473 -1.52778,4.16946 l 0,-0.14115 c 0.51986,-1.338 1.03734,-2.67701 1.52778,-4.02831 0.62488,-1.78348 1.2168,-3.58248 1.79291,-5.38824 z"
       id="path4137"
       inkscape:connector-curvature="0" />
  </g>
</svg>
