<?xml version="1.0" encoding="UTF-8" standalone="no"?>
<!-- Created with Inkscape (http://www.inkscape.org/) -->

<svg
   xmlns:dc="http://purl.org/dc/elements/1.1/"
   xmlns:cc="http://creativecommons.org/ns#"
   xmlns:rdf="http://www.w3.org/1999/02/22-rdf-syntax-ns#"
   xmlns:svg="http://www.w3.org/2000/svg"
   xmlns="http://www.w3.org/2000/svg"
   xmlns:sodipodi="http://sodipodi.sourceforge.net/DTD/sodipodi-0.dtd"
   xmlns:inkscape="http://www.inkscape.org/namespaces/inkscape"
   width="512"
   height="512"
   viewBox="0 0 512.00001 512.00001"
   id="svg2"
   version="1.1"
   inkscape:version="0.91 r13725"
   sodipodi:docname="Tulip.svg">
  <defs
     id="defs4">
    <clipPath
       clipPathUnits="userSpaceOnUse"
       id="clipPath7556">
      <path
         style="opacity:1;fill:#6bb18c;fill-opacity:1;fill-rule:nonzero;stroke:none;stroke-width:15;stroke-linecap:round;stroke-linejoin:round;stroke-miterlimit:4;stroke-dasharray:none;stroke-dashoffset:0;stroke-opacity:1"
         d="m -134.79536,926.81359 c -7.13162,14.59711 -15.69127,33.37969 -38.00699,40.91124 -11.15786,3.76578 -21.25939,4.26365 -28.57147,2.02428 -3.65603,-1.11969 -10.90041,0.64779 -12.94506,-1.77415 -2.04466,-2.42182 1.11041,-9.03306 1.11043,-12.62457 6e-5,-14.36571 15.91725,-30.62401 38.44182,-37.5056 17.5864,-5.37291 29.67079,-0.98247 37.05355,1.01143 7.12266,1.92364 6.67801,0.26076 2.91772,7.95737 z"
         id="path7558"
         inkscape:connector-curvature="0"
         sodipodi:nodetypes="ssssssss"
         clip-path="none"
         mask="none" />
    </clipPath>
    <mask
       maskUnits="userSpaceOnUse"
       id="mask7582">
      <path
         sodipodi:nodetypes="ccccc"
         inkscape:connector-curvature="0"
         id="path7584"
         d="m -789.9642,647.58325 c -80.5326,73.16964 -71.64761,219.88701 -64.00761,276.30615 l 13.56592,-1.8378 c -6.96153,-51.40893 -21.34368,-192.00385 63.11629,-269.28977 z"
         style="color:#000000;font-style:normal;font-variant:normal;font-weight:normal;font-stretch:normal;font-size:medium;line-height:normal;font-family:sans-serif;text-indent:0;text-align:start;text-decoration:none;text-decoration-line:none;text-decoration-style:solid;text-decoration-color:#000000;letter-spacing:normal;word-spacing:normal;text-transform:none;direction:ltr;block-progression:tb;writing-mode:lr-tb;baseline-shift:baseline;text-anchor:start;white-space:normal;clip-rule:nonzero;display:inline;overflow:visible;visibility:visible;opacity:1;isolation:auto;mix-blend-mode:normal;color-interpolation:sRGB;color-interpolation-filters:linearRGB;solid-color:#000000;solid-opacity:1;fill:#ef9688;fill-opacity:1;fill-rule:evenodd;stroke:none;stroke-width:15;stroke-linecap:butt;stroke-linejoin:miter;stroke-miterlimit:4;stroke-dasharray:none;stroke-dashoffset:0;stroke-opacity:1;color-rendering:auto;image-rendering:auto;shape-rendering:auto;text-rendering:auto;enable-background:accumulate"
         mask="none" />
    </mask>
  </defs>
  <sodipodi:namedview
     id="base"
     pagecolor="#ffffff"
     bordercolor="#666666"
     borderopacity="1.0"
     inkscape:pageopacity="0.0"
     inkscape:pageshadow="2"
     inkscape:zoom="0.7071068"
     inkscape:cx="264.5245"
     inkscape:cy="268.00162"
     inkscape:document-units="px"
     inkscape:current-layer="layer1"
     showgrid="false"
     units="px"
     showborder="true"
     inkscape:showpageshadow="false"
     showguides="false"
     inkscape:window-width="1366"
     inkscape:window-height="715"
     inkscape:window-x="-8"
     inkscape:window-y="-8"
     inkscape:window-maximized="1" />
  <metadata
     id="metadata7">
    <rdf:RDF>
      <cc:Work
         rdf:about="">
        <dc:format>image/svg+xml</dc:format>
        <dc:type
           rdf:resource="http://purl.org/dc/dcmitype/StillImage" />
        <dc:title />
      </cc:Work>
    </rdf:RDF>
  </metadata>
  <g
     inkscape:label="Layer 1"
     inkscape:groupmode="layer"
     id="layer1"
     transform="translate(0,-540.36216)">
    <g
       id="g4172"
       transform="translate(0,4.9999999e-6)">
      <path
         style="opacity:1;fill:#e3e0b1;fill-opacity:0.99215686;fill-rule:nonzero;stroke:none;stroke-width:6;stroke-linecap:round;stroke-linejoin:round;stroke-miterlimit:4;stroke-dasharray:none;stroke-dashoffset:0;stroke-opacity:1"
         d="m 506,796.36211 c 10e-6,138.0712 -111.9288,250.00009 -250,250.00009 -20.588,0 -40.59491,-2.4882 -59.736,-7.181 -4.14697,-1.0168 -8.25319,-2.1372 -12.316,-3.358 C 81.000948,1004.8905 5.9999886,909.38486 5.9999986,796.36211 c 1e-5,-138.07119 111.9288114,-250 250.0000014,-250 138.07119,0 250,111.92881 250,250 z"
         id="path4287"
         inkscape:connector-curvature="0"
         sodipodi:nodetypes="sssssss" />
      <path
         mask="none"
         clip-path="none"
         sodipodi:nodetypes="ssssssss"
         inkscape:connector-curvature="0"
         id="path4572"
         d="m 231.06779,943.81561 c 0.10299,-14.91487 0.74262,-33.85424 -14.5248,-49.16636 -7.63375,-7.65597 -15.73465,-12.19379 -22.6611,-13.34125 -3.46322,-0.57372 -8.69639,-4.98755 -11.36712,-3.83218 -2.67069,1.15529 -2.77897,7.87987 -4.2468,10.83243 -5.87122,11.80996 0.56941,31.68115 16.27419,46.54425 12.26174,11.6046 23.9906,12.93415 30.8748,14.31235 6.6417,1.32958 5.59653,2.51491 5.65083,-5.34924 z"
         style="opacity:1;fill:#47b93f;fill-opacity:1;fill-rule:nonzero;stroke:none;stroke-width:15;stroke-linecap:round;stroke-linejoin:round;stroke-miterlimit:4;stroke-dasharray:none;stroke-dashoffset:0;stroke-opacity:1" />
      <path
         style="fill:#000000;fill-opacity:0.15306121;fill-rule:evenodd;stroke:none;stroke-width:1px;stroke-linecap:butt;stroke-linejoin:miter;stroke-opacity:1"
         d="m -218.37574,969.82913 86.90223,-49.77195 -28.48214,62.41075 z"
         id="path4574"
         inkscape:connector-curvature="0"
         clip-path="url(#clipPath7556)"
         mask="none"
         transform="matrix(0.82209265,0.40870048,0.40870048,-0.82209265,-36.907087,1760.8332)" />
      <path
         style="color:#000000;font-style:normal;font-variant:normal;font-weight:normal;font-stretch:normal;font-size:medium;line-height:normal;font-family:sans-serif;text-indent:0;text-align:start;text-decoration:none;text-decoration-line:none;text-decoration-style:solid;text-decoration-color:#000000;letter-spacing:normal;word-spacing:normal;text-transform:none;direction:ltr;block-progression:tb;writing-mode:lr-tb;baseline-shift:baseline;text-anchor:start;white-space:normal;clip-rule:nonzero;display:inline;overflow:visible;visibility:visible;opacity:1;isolation:auto;mix-blend-mode:normal;color-interpolation:sRGB;color-interpolation-filters:linearRGB;solid-color:#000000;solid-opacity:1;fill:#48bc40;fill-opacity:1;fill-rule:evenodd;stroke:none;stroke-width:15;stroke-linecap:butt;stroke-linejoin:miter;stroke-miterlimit:4;stroke-dasharray:none;stroke-dashoffset:0;stroke-opacity:1;color-rendering:auto;image-rendering:auto;shape-rendering:auto;text-rendering:auto;enable-background:accumulate"
         d="M 255.7099,769.30124 C 295.24976,870.67131 192.80759,1038.31 192.80759,1038.31 c -3.92432,-1.1027 -7.79251,-2.0123 -11.91073,-3.4306 0,0 102.38245,-159.77902 61.15827,-266.58336 z"
         id="path4435"
         inkscape:connector-curvature="0"
         sodipodi:nodetypes="ccccc" />
      <path
         style="opacity:1;fill:#47b93f;fill-opacity:1;fill-rule:nonzero;stroke:none;stroke-width:15;stroke-linecap:round;stroke-linejoin:round;stroke-miterlimit:4;stroke-dasharray:none;stroke-dashoffset:0;stroke-opacity:1"
         d="m 297.54025,912.16524 c -11.50417,-3.04128 -26.01151,-7.29644 -40.87484,1.45999 -7.43163,4.37828 -12.5466,9.73669 -14.80866,14.86084 -1.13102,2.5621 -5.58072,5.72929 -5.21832,8.02237 0.3623,2.29304 5.53688,3.71206 7.52686,5.43254 7.95957,6.88186 24.5929,5.85109 39.19612,-3.33244 11.40168,-7.17018 14.75808,-15.969 17.19006,-21.0147 2.34624,-4.86798 3.05459,-3.82499 -3.01122,-5.4286 z"
         id="path4578"
         inkscape:connector-curvature="0"
         sodipodi:nodetypes="ssssssss"
         clip-path="none"
         mask="none" />
      <path
         transform="matrix(0.4790484,-0.55406855,-0.55406855,-0.4790484,875.632,1281.4679)"
         mask="none"
         clip-path="url(#clipPath7556)"
         inkscape:connector-curvature="0"
         id="path4580"
         d="m -218.37574,969.82913 86.90223,-49.77195 -28.48214,62.41075 z"
         style="fill:#000000;fill-opacity:0.15306121;fill-rule:evenodd;stroke:none;stroke-width:1px;stroke-linecap:butt;stroke-linejoin:miter;stroke-opacity:1" />
      <path
         sodipodi:nodetypes="ccccccccccc"
         inkscape:connector-curvature="0"
         id="path4306"
         d="m 250.94257,806.41129 1.74656,1.01696 -38.37623,-10.56963 -16.26697,29.66593 57.48452,-17.44252 56.48341,17.44252 -15.26696,-29.66593 -38.37624,10.56963 1.74655,-1.01696 -4.58676,0.6286 z"
         style="opacity:1;fill:#3a9732;fill-opacity:1;fill-rule:nonzero;stroke:none;stroke-width:15;stroke-linecap:round;stroke-linejoin:round;stroke-miterlimit:4;stroke-dasharray:none;stroke-dashoffset:0;stroke-opacity:1" />
      <path
         sodipodi:nodetypes="zzcz"
         inkscape:connector-curvature="0"
         id="path4312"
         d="m 293.69032,681.20713 c -7.57227,17.78641 -59.80837,17.78641 -67.38064,0 C 218.73741,663.42073 260,646.17055 260,646.17055 c 0,0 41.26259,17.25018 33.69032,35.03658 z"
         inkscape:transform-center-y="-5.8394258"
         style="opacity:1;fill:#922b1f;fill-opacity:1;fill-rule:nonzero;stroke:none;stroke-width:15;stroke-linecap:round;stroke-linejoin:round;stroke-miterlimit:4;stroke-dasharray:none;stroke-dashoffset:0;stroke-opacity:1" />
      <path
         sodipodi:nodetypes="zccccccz"
         inkscape:connector-curvature="0"
         style="opacity:1;fill:#ef4836;fill-opacity:1;fill-rule:nonzero;stroke:none;stroke-width:15;stroke-linecap:round;stroke-linejoin:round;stroke-miterlimit:4;stroke-dasharray:none;stroke-dashoffset:0;stroke-opacity:1"
         d="m 260.25428,678.94601 c -32.83318,32.83318 -26.32921,129.39329 -26.32921,129.39329 0,0 17.41372,0.41869 44.15008,0.40333 25.36638,4e-5 45.92991,-20.5635 45.92987,-45.92988 -0.007,-0.26897 -0.0168,-0.53787 -0.0287,-0.80667 l 0.0287,0 0,-116.76304 c 0,0 -30.91754,0.86979 -63.75073,33.70297 z"
         id="path4304" />
      <path
         sodipodi:nodetypes="cccsccczcc"
         inkscape:connector-curvature="0"
         id="rect4291"
         d="m 187.99499,762.00608 0.0407,0 c -0.0159,0.26877 -0.0295,0.53768 -0.0407,0.80668 -5e-5,25.36638 20.5637,45.92989 45.93008,45.92985 25.36639,4e-5 45.92968,-20.56348 45.92964,-45.92985 -0.007,-0.26897 -0.0168,-0.53787 -0.0287,-0.80668 l 0.0287,0 c 0,0 0.87661,-63.80003 -25.12403,-89.80066 -26.00063,-26.00063 -66.73569,-26.96238 -66.73569,-26.96238 0,0 0,97.88181 0,116.76304 z"
         style="opacity:1;fill:#c43829;fill-opacity:1;fill-rule:nonzero;stroke:none;stroke-width:15;stroke-linecap:round;stroke-linejoin:round;stroke-miterlimit:4;stroke-dasharray:none;stroke-dashoffset:0;stroke-opacity:1" />
    </g>
  </g>
</svg>
