<?xml version="1.0" encoding="UTF-8" standalone="no"?>
<!-- Created with Inkscape (http://www.inkscape.org/) -->

<svg
   xmlns:dc="http://purl.org/dc/elements/1.1/"
   xmlns:cc="http://creativecommons.org/ns#"
   xmlns:rdf="http://www.w3.org/1999/02/22-rdf-syntax-ns#"
   xmlns:svg="http://www.w3.org/2000/svg"
   xmlns="http://www.w3.org/2000/svg"
   xmlns:sodipodi="http://sodipodi.sourceforge.net/DTD/sodipodi-0.dtd"
   xmlns:inkscape="http://www.inkscape.org/namespaces/inkscape"
   width="512"
   height="512"
   viewBox="0 0 512.00001 512.00001"
   id="svg2"
   version="1.1"
   inkscape:version="0.91 r13725"
   sodipodi:docname="logo-bl.svg">
  <defs
     id="defs4" />
  <sodipodi:namedview
     id="base"
     pagecolor="#ffffff"
     bordercolor="#666666"
     borderopacity="1.0"
     inkscape:pageopacity="0.0"
     inkscape:pageshadow="2"
     inkscape:zoom="0.24748737"
     inkscape:cx="500.45456"
     inkscape:cy="89.726977"
     inkscape:document-units="px"
     inkscape:current-layer="layer1"
     showgrid="false"
     units="px"
     fit-margin-top="0"
     fit-margin-left="0"
     fit-margin-right="0"
     fit-margin-bottom="0"
     inkscape:window-width="1366"
     inkscape:window-height="715"
     inkscape:window-x="-8"
     inkscape:window-y="-8"
     inkscape:window-maximized="1" />
  <metadata
     id="metadata7">
    <rdf:RDF>
      <cc:Work
         rdf:about="">
        <dc:format>image/svg+xml</dc:format>
        <dc:type
           rdf:resource="http://purl.org/dc/dcmitype/StillImage" />
        <dc:title />
      </cc:Work>
    </rdf:RDF>
  </metadata>
  <g
     inkscape:label="Layer 1"
     inkscape:groupmode="layer"
     id="layer1"
     transform="translate(0,-540.36216)">
    <path
       style="opacity:1;fill:#000000;fill-opacity:1;fill-rule:nonzero;stroke:none;stroke-width:3;stroke-linecap:butt;stroke-linejoin:miter;stroke-miterlimit:4;stroke-dasharray:none;stroke-dashoffset:0;stroke-opacity:1"
       d="M 79.207769,6 C 45.366138,6 6,45.366138 6,79.207769 L 6,432.79223 C 6,466.63386 45.366138,506 79.207769,506 l 353.584461,0 C 466.63386,506 506,466.63386 506,432.79223 L 506,79.207769 C 506,45.366138 466.63386,6 432.79223,6 Z M 364.04883,88.363281 c 14.94913,0.03138 37.10742,6.189453 37.10742,6.189453 2.70583,-0.55593 4.98828,2.223958 4.98828,4.986328 l 0,107.414058 c 0,2.76239 -2.22779,5.08803 -4.98828,4.98633 0,0 -21.88971,-5.34618 -44.98633,-2.28515 -16.07931,2.13102 -24.16458,8.94539 -45.54101,8.15743 -21.54655,-0.79422 -38.37305,-10.23556 -38.37305,-10.23556 -2.76047,-0.10174 -4.98633,-2.22396 -4.98633,-4.98633 l 0,-107.414059 c 0,-2.76235 2.22403,-4.986328 4.98633,-4.986328 0,0 23.06001,7.82105 42.73437,7.921111 19.8526,0.100966 21.90429,-5.95201 40.4668,-9.05783 2.94392,-0.49257 5.82342,-0.695453 8.5918,-0.689453 z m -146.4961,0.523438 27.18555,0 c 2.60977,0 4.71094,2.101167 4.71094,4.710937 l 0,261.835384 c 0,2.60978 -2.10117,4.70898 -4.71094,4.70898 l -27.18555,0 c -2.60978,0 -4.71289,-2.0992 -4.71289,-4.70898 l 0,-261.835384 c 0,-2.60977 2.10311,-4.710937 4.71289,-4.710937 z m -76.48828,208.539061 42.31055,0 0,18.8125 -21.96484,0 c -1.53853,0 -2.53979,0.83436 -2.77539,1.82227 l -18.60157,77.99218 c -0.23561,0.98791 1.23885,1.82227 2.77735,1.82227 l 175.93164,0 c 1.53851,0 3.01717,-0.83535 2.77734,-1.82227 l -18.59961,-77.99218 c -0.23981,-0.9869 -1.23883,-1.82227 -2.77734,-1.82227 l -21.96485,0 0,-18.8125 42.3125,0 c 2.22216,0 3.61196,1.32858 4.00977,2.86719 l 31.14844,120.47656 c 0.39779,1.53864 -1.78955,2.86914 -4.01172,2.86914 l -241.7207,0 c -2.22217,0 -4.40952,-1.3305 -4.01172,-2.86914 l 31.14843,-120.47656 c 0.3978,-1.53861 1.78956,-2.86719 4.01172,-2.86719 z"
       transform="translate(0,540.36216)"
       id="rect4220"
       inkscape:connector-curvature="0"
       sodipodi:nodetypes="sssssssssccsscsscsscsscssssssssssccsccssccsccssssssss" />
  </g>
</svg>
