<?xml version="1.0" encoding="UTF-8" standalone="no"?>
<!-- Created with Inkscape (http://www.inkscape.org/) -->

<svg
   xmlns:dc="http://purl.org/dc/elements/1.1/"
   xmlns:cc="http://creativecommons.org/ns#"
   xmlns:rdf="http://www.w3.org/1999/02/22-rdf-syntax-ns#"
   xmlns:svg="http://www.w3.org/2000/svg"
   xmlns="http://www.w3.org/2000/svg"
   xmlns:sodipodi="http://sodipodi.sourceforge.net/DTD/sodipodi-0.dtd"
   xmlns:inkscape="http://www.inkscape.org/namespaces/inkscape"
   width="144.49777mm"
   height="144.49777mm"
   viewBox="0 0 511.99998 511.99998"
   id="svg4148"
   version="1.1"
   inkscape:version="0.91 r13725"
   sodipodi:docname="calendar.svg">
  <defs
     id="defs4150">
    <pattern
       y="0"
       x="0"
       height="6"
       width="6"
       patternUnits="userSpaceOnUse"
       id="EMFhbasepattern" />
  </defs>
  <sodipodi:namedview
     id="base"
     pagecolor="#ffffff"
     bordercolor="#666666"
     borderopacity="1.0"
     inkscape:pageopacity="0.0"
     inkscape:pageshadow="2"
     inkscape:zoom="0.70710678"
     inkscape:cx="-322.26311"
     inkscape:cy="211.45226"
     inkscape:document-units="px"
     inkscape:current-layer="layer1"
     showgrid="false"
     inkscape:window-width="1366"
     inkscape:window-height="715"
     inkscape:window-x="-8"
     inkscape:window-y="-8"
     inkscape:window-maximized="1"
     fit-margin-top="0"
     fit-margin-left="0"
     fit-margin-right="0"
     fit-margin-bottom="0"
     inkscape:snap-to-guides="false"
     inkscape:snap-bbox="false"
     inkscape:bbox-nodes="false"
     inkscape:snap-nodes="true"
     inkscape:snap-global="true"
     showguides="true" />
  <metadata
     id="metadata4153">
    <rdf:RDF>
      <cc:Work
         rdf:about="">
        <dc:format>image/svg+xml</dc:format>
        <dc:type
           rdf:resource="http://purl.org/dc/dcmitype/StillImage" />
        <dc:title />
      </cc:Work>
    </rdf:RDF>
  </metadata>
  <g
     inkscape:label="Layer 1"
     inkscape:groupmode="layer"
     id="layer1"
     transform="translate(-91.214475,-152.15558)">
    <path
       style="color:#000000;font-style:normal;font-variant:normal;font-weight:normal;font-stretch:normal;font-size:medium;line-height:normal;font-family:sans-serif;text-indent:0;text-align:start;text-decoration:none;text-decoration-line:none;text-decoration-style:solid;text-decoration-color:#000000;letter-spacing:normal;word-spacing:normal;text-transform:none;direction:ltr;block-progression:tb;writing-mode:lr-tb;baseline-shift:baseline;text-anchor:start;white-space:normal;clip-rule:nonzero;display:inline;overflow:visible;visibility:visible;opacity:1;isolation:auto;mix-blend-mode:normal;color-interpolation:sRGB;color-interpolation-filters:linearRGB;solid-color:#000000;solid-opacity:1;fill:#ec156f;fill-opacity:0.94117647;fill-rule:nonzero;stroke:none;stroke-width:15.67265606;stroke-linecap:round;stroke-linejoin:round;stroke-miterlimit:4;stroke-dasharray:none;stroke-dashoffset:0;stroke-opacity:1;color-rendering:auto;image-rendering:auto;shape-rendering:auto;text-rendering:auto;enable-background:accumulate"
       d="m 246.64571,158.15557 c -10.57858,0 -19.33289,8.75433 -19.33289,19.33289 l 0,23.46992 -89.38409,0 c -10.57963,0 -19.33479,8.75516 -19.33479,19.3348 l 0,418.5295 c 0,10.57964 8.75666,19.33289 19.33479,19.33289 l 418.57148,0 c 10.57812,0 19.33479,-8.75325 19.33479,-19.33289 l 0,-418.5295 c 0,-10.57964 -8.75515,-19.3348 -19.33479,-19.3348 l -89.38407,0 0,-23.46992 c 0,-10.57856 -8.75622,-19.33289 -19.3348,-19.33289 l -19.49501,0 c -10.57857,0 -19.33289,8.75433 -19.33289,19.33289 l 0,23.46992 -123.47793,0 0,-23.46992 c 0,-10.57856 -8.75622,-19.33289 -19.33479,-19.33289 l -19.49501,0 z m 0,15.30457 19.49501,0 c 2.36416,0 4.02832,1.66416 4.02832,4.02832 l 0,60.30274 c 0,0.88656 -0.23321,1.67476 -0.65041,2.31361 -0.4172,0.63884 -1.01823,1.12963 -1.75095,1.41906 -0.48847,0.19296 -1.03593,0.29565 -1.62696,0.29565 l -19.49501,0 c -0.52559,0 -1.00951,-0.0922 -1.45531,-0.24606 -0.055,-0.0189 -0.1162,-0.0284 -0.16975,-0.0496 -5.4e-4,-2.1e-4 -9.8e-4,2.2e-4 -0.002,0 -0.24371,-0.0963 -0.47219,-0.21609 -0.68474,-0.35476 -4.2e-4,-2.8e-4 -0.002,2.7e-4 -0.002,0 -0.21253,-0.1388 -0.40795,-0.29937 -0.58556,-0.47684 -0.17805,-0.17805 -0.33762,-0.37439 -0.47684,-0.58746 -0.4172,-0.63885 -0.65231,-1.42705 -0.65231,-2.31361 l 0,-29.18053 0,-31.12221 c 0,-2.36416 1.66416,-4.02831 4.02832,-4.02832 z m 181.64062,0 19.49501,0 c 2.36416,0 4.02832,1.66416 4.02832,4.02832 l 0,60.30274 c 0,0.88656 -0.2332,1.67476 -0.65041,2.31361 -0.41719,0.63884 -1.01823,1.12963 -1.75094,1.41906 -0.48847,0.19296 -1.03593,0.29565 -1.62697,0.29565 l -19.49501,0 c -0.52558,0 -1.00951,-0.0922 -1.45531,-0.24606 -0.055,-0.0189 -0.11619,-0.0284 -0.16975,-0.0496 -5.3e-4,-2.1e-4 -9.7e-4,2.2e-4 -0.002,0 -0.2437,-0.0963 -0.47219,-0.21609 -0.68474,-0.35476 -4.2e-4,-2.8e-4 -0.002,2.7e-4 -0.002,0 -0.21253,-0.1388 -0.40795,-0.29937 -0.58556,-0.47684 -0.17804,-0.17805 -0.33761,-0.37439 -0.47683,-0.58746 -0.41721,-0.63885 -0.65232,-1.42705 -0.65232,-2.31361 l 0,-29.18053 0,-31.12221 c 0,-2.36416 1.66416,-4.02831 4.02832,-4.02832 z m -290.3576,42.8028 89.38409,0 0,21.52826 c 0,0.66122 0.0344,1.31546 0.10109,1.96075 0.33351,3.22615 1.47998,6.23224 3.22724,8.80623 0.69889,1.02959 1.4931,1.9908 2.37083,2.86865 0.87772,0.87784 1.83917,1.67182 2.86865,2.37083 1.54422,1.04852 3.24304,1.88098 5.05257,2.45095 5.6e-4,1.7e-4 9.7e-4,-1.9e-4 0.002,0 0.60262,0.18974 1.21722,0.35073 1.8425,0.48064 6.1e-4,1.3e-4 9.8e-4,-1.3e-4 0.002,0 0.62531,0.12986 1.26086,0.229 1.90545,0.29565 6.3e-4,5e-5 9.8e-4,-7e-5 0.002,0 0.32199,0.0333 0.64657,0.0595 0.97274,0.0763 6.4e-4,3e-5 9.8e-4,-3e-5 0.002,0 0.32619,0.0168 0.65425,0.0248 0.98419,0.0248 6.4e-4,0 9.8e-4,0 0.002,0 l 19.4931,0 c 3.96737,0 7.67823,-1.23142 10.76698,-3.32832 1.02959,-0.69901 1.99081,-1.49299 2.86866,-2.37083 0.87784,-0.87785 1.67182,-1.83906 2.37083,-2.86865 2.09704,-3.08878 3.32833,-6.80002 3.32833,-10.76698 l 0,-21.52826 123.47793,0 0,21.52826 c 0,0.66122 0.0344,1.31546 0.10109,1.96075 0.33354,3.2264 1.47981,6.23227 3.22724,8.80623 0.69889,1.02959 1.4931,1.9908 2.37083,2.86865 0.87772,0.87784 1.83917,1.67182 2.86865,2.37083 1.02958,0.69896 2.12827,1.30177 3.28255,1.79481 2.30833,0.9862 4.83788,1.53351 7.48253,1.53351 6.3e-4,0 9.7e-4,0 0.002,0 l 19.49311,0 c 3.96735,0 7.67824,-1.23142 10.76698,-3.32832 1.02959,-0.69901 1.99081,-1.49299 2.86865,-2.37083 0.87784,-0.87785 1.67183,-1.83906 2.37083,-2.86865 2.09704,-3.08878 3.32833,-6.80002 3.32833,-10.76698 l 0,-21.52826 89.38407,0 c 2.36309,0 4.03024,1.66716 4.03024,4.03024 l 0,82.16857 -426.63194,0 0,-82.16857 c 0,-2.36308 1.66715,-4.03024 4.03023,-4.03024 z m -4.03022,101.50529 426.63193,0 0,321.05445 c 0,2.3631 -1.66564,4.02832 -4.03023,4.02832 l -418.57148,0 c -2.36458,0 -4.03022,-1.66522 -4.03022,-4.02832 l 0,-321.05445 z m 59.01909,51.24091 a 7.3249512,7.3249512 0 0 0 -7.32422,7.32422 l 0,208.98438 a 7.3249512,7.3249512 0 0 0 7.32422,7.32422 l 308.59375,0 a 7.3249512,7.3249512 0 0 0 7.32422,-7.32422 l 0,-208.98438 a 7.3249512,7.3249512 0 0 0 -7.32422,-7.32422 l -308.59375,0 z m 7.32422,14.64844 36.62109,0 0,37.68158 -36.62109,0 0,-37.68158 z m 51.26953,0 36.6211,0 0,37.68158 -36.6211,0 0,-37.68158 z m 51.26953,0 36.6211,0 0,37.68158 -36.6211,0 0,-37.68158 z m 51.26953,0 36.6211,0 0,37.68158 -36.6211,0 0,-37.68158 z m 51.26954,0 36.62109,0 0,37.68158 -36.62109,0 0,-37.68158 z m 51.26953,0 37.59765,0 0,37.68158 -37.59765,0 0,-37.68158 z m 12.39967,11.08933 a 7.3249512,7.3249512 0 1 0 0,14.64844 l 11.77407,0 a 7.3249512,7.3249512 0 1 0 0,-14.64844 l -11.77407,0 z m -268.74733,41.24069 36.62109,0 0,37.10938 -36.62109,0 0,-37.10938 z m 51.26953,0 36.6211,0 0,37.10938 -36.6211,0 0,-37.10938 z m 51.26953,0 36.6211,0 0,37.10938 -36.6211,0 0,-37.10938 z m 51.26953,0 36.6211,0 0,37.10938 -36.6211,0 0,-37.10938 z m 51.26954,0 36.62109,0 0,37.10938 -36.62109,0 0,-37.10938 z m 51.26953,0 37.59765,0 0,37.10938 -37.59765,0 0,-37.10938 z M 263.6726,447.37066 a 7.3249512,7.3249512 0 1 0 0,14.64844 l 11.77216,0 a 7.3249512,7.3249512 0 1 0 0,-14.64844 l -11.77216,0 z m -63.43078,40.37475 36.62109,0 0,37.10938 -36.62109,0 0,-37.10938 z m 51.26953,0 36.6211,0 0,37.10938 -36.6211,0 0,-37.10938 z m 51.26953,0 36.6211,0 0,37.10938 -36.6211,0 0,-37.10938 z m 51.26953,0 36.6211,0 0,37.10938 -36.6211,0 0,-37.10938 z m 51.26954,0 36.62109,0 0,37.10938 -36.62109,0 0,-37.10938 z m 51.26953,0 37.59765,0 0,37.10938 -37.59765,0 0,-37.10938 z m -90.28625,11.07026 a 7.3249512,7.3249512 0 1 0 0,14.64844 l 11.77215,0 a 7.3249512,7.3249512 0 1 0 0,-14.64844 l -11.77215,0 z m -166.06141,40.68756 36.62109,0 0,38.49029 -36.62109,0 0,-38.49029 z m 51.26953,0 36.6211,0 0,38.49029 -36.6211,0 0,-38.49029 z m 51.26953,0 36.6211,0 0,38.49029 -36.6211,0 0,-38.49029 z m 51.26953,0 36.6211,0 0,38.49029 -36.6211,0 0,-38.49029 z m 51.26954,0 36.62109,0 0,38.49029 -36.62109,0 0,-38.49029 z m 51.26953,0 37.59765,0 0,38.49029 -37.59765,0 0,-38.49029 z"
       id="rect4135"
       inkscape:connector-curvature="0" />
  </g>
</svg>
