<?xml version="1.0" encoding="UTF-8" standalone="no"?>
<!-- Created with Inkscape (http://www.inkscape.org/) -->

<svg
   xmlns:dc="http://purl.org/dc/elements/1.1/"
   xmlns:cc="http://creativecommons.org/ns#"
   xmlns:rdf="http://www.w3.org/1999/02/22-rdf-syntax-ns#"
   xmlns:svg="http://www.w3.org/2000/svg"
   xmlns="http://www.w3.org/2000/svg"
   xmlns:sodipodi="http://sodipodi.sourceforge.net/DTD/sodipodi-0.dtd"
   xmlns:inkscape="http://www.inkscape.org/namespaces/inkscape"
   width="144.49777mm"
   height="144.49777mm"
   viewBox="0 0 511.99998 511.99998"
   id="svg4148"
   version="1.1"
   inkscape:version="0.91 r13725"
   sodipodi:docname="camera.svg">
  <defs
     id="defs4150">
    <pattern
       y="0"
       x="0"
       height="6"
       width="6"
       patternUnits="userSpaceOnUse"
       id="EMFhbasepattern" />
  </defs>
  <sodipodi:namedview
     id="base"
     pagecolor="#ffffff"
     bordercolor="#666666"
     borderopacity="1.0"
     inkscape:pageopacity="0.0"
     inkscape:pageshadow="2"
     inkscape:zoom="0.35355339"
     inkscape:cx="-686.60812"
     inkscape:cy="139.92488"
     inkscape:document-units="px"
     inkscape:current-layer="layer1"
     showgrid="false"
     inkscape:window-width="1366"
     inkscape:window-height="715"
     inkscape:window-x="-8"
     inkscape:window-y="-8"
     inkscape:window-maximized="1"
     fit-margin-top="0"
     fit-margin-left="0"
     fit-margin-right="0"
     fit-margin-bottom="0"
     inkscape:snap-to-guides="false"
     inkscape:snap-bbox="false"
     inkscape:bbox-nodes="false"
     inkscape:snap-nodes="true"
     inkscape:snap-global="true"
     showguides="false" />
  <metadata
     id="metadata4153">
    <rdf:RDF>
      <cc:Work
         rdf:about="">
        <dc:format>image/svg+xml</dc:format>
        <dc:type
           rdf:resource="http://purl.org/dc/dcmitype/StillImage" />
        <dc:title />
      </cc:Work>
    </rdf:RDF>
  </metadata>
  <g
     inkscape:label="Layer 1"
     inkscape:groupmode="layer"
     id="layer1"
     transform="translate(-91.214475,-152.15558)">
    <path
       style="color:#000000;font-style:normal;font-variant:normal;font-weight:normal;font-stretch:normal;font-size:medium;line-height:normal;font-family:sans-serif;text-indent:0;text-align:start;text-decoration:none;text-decoration-line:none;text-decoration-style:solid;text-decoration-color:#000000;letter-spacing:normal;word-spacing:normal;text-transform:none;direction:ltr;block-progression:tb;writing-mode:lr-tb;baseline-shift:baseline;text-anchor:start;white-space:normal;clip-rule:nonzero;display:inline;overflow:visible;visibility:visible;opacity:1;isolation:auto;mix-blend-mode:normal;color-interpolation:sRGB;color-interpolation-filters:linearRGB;solid-color:#000000;solid-opacity:1;fill:#6734ba;fill-opacity:1;fill-rule:nonzero;stroke:none;stroke-width:15.00256634;stroke-linecap:round;stroke-linejoin:miter;stroke-miterlimit:4;stroke-dasharray:none;stroke-dashoffset:0;stroke-opacity:1;color-rendering:auto;image-rendering:auto;shape-rendering:auto;text-rendering:auto;enable-background:accumulate"
       d="m 278.37825,223.33931 0,0.002 c -8.71005,0 -14.9241,5.97793 -19.63806,12.37488 -4.71397,6.39694 -8.62151,14.13315 -12.55608,21.60645 -3.73757,7.09911 -7.497,13.9223 -11.19423,18.72062 -2.63268,0.87175 -4.69662,2.96867 -5.50841,5.62859 -1.75643,1.24538 -3.358,1.80626 -4.87328,1.80626 l -15.71274,0 0,-15.66124 c -3.9e-4,-4.04489 -3.27939,-7.32382 -7.32422,-7.32422 l -53.4668,0 c -4.04492,4e-4 -7.32382,3.27933 -7.32422,7.32422 l 0,15.66124 -10.00022,0 c -18.46836,0 -33.565522,15.09708 -33.565522,33.56551 l 0,22.30454 158.863062,0 c 23.57846,-22.90827 55.73134,-37.0369 91.13693,-37.0369 35.40539,0 67.55848,14.12901 91.13694,37.0369 l 158.86306,0 0,-22.30454 c 0,-18.46843 -15.09706,-33.56549 -33.56551,-33.56551 l -93.82821,0 c -0.71298,0 -3.66796,-1.49822 -7.41386,-6.40679 -3.746,-4.90858 -7.8543,-12.16614 -12.11358,-19.66477 -4.25937,-7.49862 -8.67392,-15.24856 -13.82636,-21.62361 -5.15245,-6.37504 -11.4714,-12.12184 -20.14923,-12.43782 l -0.13352,-0.006 -137.80594,0 z m 90.37208,19.7773 43.48183,0 c 5.4386,0 9.81713,4.37853 9.81713,9.81712 l 0,19.37485 c 0,5.4386 -4.37853,9.81522 -9.81713,9.81522 l -43.48183,0 c -5.43859,0 -9.81712,-4.37662 -9.81712,-9.81522 l 0,-19.37485 c 0,-5.43859 4.37853,-9.81712 9.81712,-9.81712 z m 89.60915,50.87471 c 0.10987,0.0846 0.21891,0.17106 0.32998,0.25368 l -0.34142,0 c 0.003,-0.0848 0.0108,-0.16829 0.0114,-0.25368 z m -111.14502,24.0078 c -63.42677,10e-4 -114.84336,51.42006 -114.84336,114.84718 0.0465,19.47929 5.04634,38.62644 14.53018,55.64118 0.56431,1.02284 1.14715,2.03314 1.74141,3.03649 1.17378,1.98243 2.40569,3.92823 3.69644,5.83649 1.10579,1.63326 2.25251,3.23707 3.43895,4.80843 0.9599,1.27067 1.94454,2.5221 2.95638,3.75175 1.54599,1.87934 3.1553,3.70386 4.81606,5.47982 6.08419,6.48286 12.89954,12.23668 20.31136,17.14706 l -0.0916,0 c 2.59831,1.72985 5.27998,3.34453 8.02232,4.86183 0.26231,0.14381 0.52433,0.28548 0.78773,0.42725 3.20534,1.74072 6.49818,3.33964 9.88007,4.77409 l 0.0839,0.0343 c 6.87648,2.91032 14.0989,5.16021 21.58927,6.68907 0.16194,0.0344 0.32434,0.0693 0.48638,0.103 3.48773,0.69607 7.03233,1.23184 10.62775,1.60408 0.38769,0.0382 0.77545,0.0744 1.16348,0.10872 3.35973,0.31347 6.75975,0.4933 10.1986,0.51117 0.20241,0.0104 0.40412,0.0207 0.60653,0.0305 0.37732,-0.0117 0.75384,-0.0246 1.13106,-0.0401 1.96924,-0.0191 3.92677,-0.0891 5.87082,-0.20599 0.49604,-0.0252 0.99021,-0.0542 1.48582,-0.0858 3.60329,-0.26306 7.15433,-0.70549 10.65636,-1.29319 0.23668,-0.0391 0.47308,-0.0797 0.70953,-0.12015 3.67727,-0.64093 7.29461,-1.45189 10.84137,-2.43378 l 0.061,-0.0172 c 7.35899,-2.04161 14.41384,-4.79819 21.09336,-8.19016 0.1352,-0.0672 0.27153,-0.1344 0.40627,-0.20218 3.13912,-1.60971 6.18968,-3.36445 9.15146,-5.24711 0.41094,-0.25955 0.81897,-0.52109 1.22642,-0.78582 0.26974,-0.17628 0.54646,-0.34414 0.81445,-0.52262 l -0.0858,0 c 7.08445,-4.71669 13.6235,-10.20561 19.49501,-16.36696 l 0.0877,0 c 1.2336,-1.29494 2.43825,-2.61748 3.61062,-3.96919 0.93098,-1.07769 1.84104,-2.17288 2.73132,-3.28446 1.34204,-1.66912 2.64257,-3.37304 3.89099,-5.11741 1.17498,-1.64567 2.3067,-3.32235 3.39317,-5.02777 0.80889,-1.26698 1.59972,-2.5467 2.35939,-3.84713 -9.8e-4,-9.7e-4 -8.7e-4,-0.005 0,-0.006 10.37687,-17.60096 15.86936,-37.65043 15.91301,-58.08259 0,-63.42712 -51.4165,-114.8462 -114.84337,-114.84718 l -0.002,0 z m 0,19.84405 a 94.726562,94.726562 0 0 1 94.72657,94.72657 94.726562,94.726562 0 0 1 -94.72657,94.72656 94.726562,94.726562 0 0 1 -94.72656,-94.72656 94.726562,94.726562 0 0 1 94.72656,-94.72657 z m -249.999992,17.87186 0,156.46553 145.734782,0 c -16.68331,-21.96732 -26.59988,-49.34491 -26.59988,-79.00429 0,-28.96956 9.46189,-55.76053 25.44784,-77.46124 l -144.582742,0 z m 355.417252,0 c 15.98604,21.70077 25.44784,48.49153 25.44784,77.46124 0,29.65905 -9.91499,57.0371 -26.59798,79.00429 l 145.73288,0 0,-156.46553 -144.58274,0 z m -117.24853,1.23977 a 7.3249512,7.3249512 0 1 0 0,14.64844 c 20.46837,0 37.5124,6.47713 49.52621,18.0626 12.01381,11.58546 19.32144,28.45698 19.32144,50.78506 a 7.3249512,7.3249512 0 1 0 14.64844,0 c 0,-25.59898 -8.7463,-46.81209 -23.80181,-61.33079 C 380.02196,364.6014 358.98125,356.9548 335.38319,356.9548 Z m -185.92263,48.27119 a 8.3007813,8.3007813 0 0 1 8.30078,8.30078 8.3007813,8.3007813 0 0 1 -8.30078,8.30078 8.3007813,8.3007813 0 0 1 -8.30078,-8.30078 8.3007813,8.3007813 0 0 1 8.30078,-8.30078 z m -52.246092,123.32153 0,30.85899 c 0,18.46843 15.097162,33.56552 33.565522,33.56552 l 432.86896,0 c 18.46845,0 33.56551,-15.09709 33.56551,-33.56552 l 0,-30.85899 -160.47477,0 c -23.42187,21.99848 -54.92076,35.49385 -89.52523,35.49385 -34.60434,0 -66.10154,-13.49537 -89.52332,-35.49385 l -160.476672,0 z"
       id="path4150"
       inkscape:connector-curvature="0" />
  </g>
</svg>
