<?xml version="1.0" encoding="UTF-8" standalone="no"?>
<!-- Created with Inkscape (http://www.inkscape.org/) -->

<svg
   xmlns:dc="http://purl.org/dc/elements/1.1/"
   xmlns:cc="http://creativecommons.org/ns#"
   xmlns:rdf="http://www.w3.org/1999/02/22-rdf-syntax-ns#"
   xmlns:svg="http://www.w3.org/2000/svg"
   xmlns="http://www.w3.org/2000/svg"
   xmlns:sodipodi="http://sodipodi.sourceforge.net/DTD/sodipodi-0.dtd"
   xmlns:inkscape="http://www.inkscape.org/namespaces/inkscape"
   width="512"
   height="512"
   viewBox="0 0 512.00001 512.00001"
   id="svg2"
   version="1.1"
   inkscape:version="0.91 r13725"
   sodipodi:docname="daisy.svg">
  <defs
     id="defs4">
    <clipPath
       clipPathUnits="userSpaceOnUse"
       id="clipPath7556">
      <path
         style="opacity:1;fill:#6bb18c;fill-opacity:1;fill-rule:nonzero;stroke:none;stroke-width:15;stroke-linecap:round;stroke-linejoin:round;stroke-miterlimit:4;stroke-dasharray:none;stroke-dashoffset:0;stroke-opacity:1"
         d="m -134.79536,926.81359 c -7.13162,14.59711 -15.69127,33.37969 -38.00699,40.91124 -11.15786,3.76578 -21.25939,4.26365 -28.57147,2.02428 -3.65603,-1.11969 -10.90041,0.64779 -12.94506,-1.77415 -2.04466,-2.42182 1.11041,-9.03306 1.11043,-12.62457 6e-5,-14.36571 15.91725,-30.62401 38.44182,-37.5056 17.5864,-5.37291 29.67079,-0.98247 37.05355,1.01143 7.12266,1.92364 6.67801,0.26076 2.91772,7.95737 z"
         id="path7558"
         inkscape:connector-curvature="0"
         sodipodi:nodetypes="ssssssss"
         clip-path="none"
         mask="none" />
    </clipPath>
    <mask
       maskUnits="userSpaceOnUse"
       id="mask7582">
      <path
         sodipodi:nodetypes="ccccc"
         inkscape:connector-curvature="0"
         id="path7584"
         d="m -789.9642,647.58325 c -80.5326,73.16964 -71.64761,219.88701 -64.00761,276.30615 l 13.56592,-1.8378 c -6.96153,-51.40893 -21.34368,-192.00385 63.11629,-269.28977 z"
         style="color:#000000;font-style:normal;font-variant:normal;font-weight:normal;font-stretch:normal;font-size:medium;line-height:normal;font-family:sans-serif;text-indent:0;text-align:start;text-decoration:none;text-decoration-line:none;text-decoration-style:solid;text-decoration-color:#000000;letter-spacing:normal;word-spacing:normal;text-transform:none;direction:ltr;block-progression:tb;writing-mode:lr-tb;baseline-shift:baseline;text-anchor:start;white-space:normal;clip-rule:nonzero;display:inline;overflow:visible;visibility:visible;opacity:1;isolation:auto;mix-blend-mode:normal;color-interpolation:sRGB;color-interpolation-filters:linearRGB;solid-color:#000000;solid-opacity:1;fill:#ef9688;fill-opacity:1;fill-rule:evenodd;stroke:none;stroke-width:15;stroke-linecap:butt;stroke-linejoin:miter;stroke-miterlimit:4;stroke-dasharray:none;stroke-dashoffset:0;stroke-opacity:1;color-rendering:auto;image-rendering:auto;shape-rendering:auto;text-rendering:auto;enable-background:accumulate"
         mask="none" />
    </mask>
  </defs>
  <sodipodi:namedview
     id="base"
     pagecolor="#ffffff"
     bordercolor="#666666"
     borderopacity="1.0"
     inkscape:pageopacity="0.0"
     inkscape:pageshadow="2"
     inkscape:zoom="1"
     inkscape:cx="123.00435"
     inkscape:cy="285.6238"
     inkscape:document-units="px"
     inkscape:current-layer="layer1"
     showgrid="false"
     units="px"
     showborder="true"
     inkscape:showpageshadow="false"
     showguides="false"
     inkscape:window-width="1366"
     inkscape:window-height="715"
     inkscape:window-x="-8"
     inkscape:window-y="-8"
     inkscape:window-maximized="1" />
  <metadata
     id="metadata7">
    <rdf:RDF>
      <cc:Work
         rdf:about="">
        <dc:format>image/svg+xml</dc:format>
        <dc:type
           rdf:resource="http://purl.org/dc/dcmitype/StillImage" />
        <dc:title />
      </cc:Work>
    </rdf:RDF>
  </metadata>
  <g
     inkscape:label="Layer 1"
     inkscape:groupmode="layer"
     id="layer1"
     transform="translate(0,-540.36216)">
    <path
       style="color:#000000;font-style:normal;font-variant:normal;font-weight:normal;font-stretch:normal;font-size:medium;line-height:normal;font-family:sans-serif;text-indent:0;text-align:start;text-decoration:none;text-decoration-line:none;text-decoration-style:solid;text-decoration-color:#000000;letter-spacing:normal;word-spacing:normal;text-transform:none;direction:ltr;block-progression:tb;writing-mode:lr-tb;baseline-shift:baseline;text-anchor:start;white-space:normal;clip-rule:nonzero;display:inline;overflow:visible;visibility:visible;opacity:1;isolation:auto;mix-blend-mode:normal;color-interpolation:sRGB;color-interpolation-filters:linearRGB;solid-color:#000000;solid-opacity:1;fill:#ff9900;fill-opacity:1;fill-rule:evenodd;stroke:none;stroke-width:15;stroke-linecap:butt;stroke-linejoin:miter;stroke-miterlimit:4;stroke-dasharray:none;stroke-dashoffset:0;stroke-opacity:1;color-rendering:auto;image-rendering:auto;shape-rendering:auto;text-rendering:auto;enable-background:accumulate"
       d="m 257.40496,546.36198 -2.25196,16.51631 -0.748,-16.41385 c -2.11802,0.22545 -3.15994,1.2604 -4.75782,2.89067 -0.5488,2.43367 -1.04208,11.52763 -1.40833,13.89205 l -0.39848,-12.30497 c -13.48601,8.28468 -7.9655,40.95203 -6.11378,79.40283 0.16575,3.44168 0.36606,6.81022 0.58292,10.13954 -1.07897,-3.10674 -2.18702,-6.24363 -3.35404,-9.43139 -13.23391,-36.14907 -20.8403,-68.39406 -36.4857,-70.78775 l 4.41399,11.49322 c -1.25618,-2.03634 -5.24427,-10.22453 -6.69555,-12.25375 -2.10577,-0.88122 -3.46776,-1.43039 -5.50696,-0.81517 l 5.68797,15.41424 -8.49211,-14.3429 c -1.11299,0.90481 -2.36733,2.35041 -2.73127,4.16238 l 4.83637,13.00174 -6.5225,-11.26211 -0.11044,-0.14345 c -7.90118,7.94195 4.39611,35.89894 22.26121,74.00859 -25.09705,-27.41951 -43.93193,-52.75056 -58.88467,-49.03546 l 8.49894,8.90654 c -1.94353,-1.39547 -8.77694,-7.41631 -10.89778,-8.73007 -2.28276,-0.002 -3.75156,0.0165 -5.39651,1.36962 l 11.18582,12.03401 -13.36037,-9.96648 c -0.67865,1.26367 -1.28074,3.08094 -0.91878,4.8933 l 9.47237,10.13612 -10.35812,-7.88188 -0.15712,-0.0888 c -4.35385,10.66825 19.137,32.62361 51.70867,62.14308 4.2912,3.88907 8.51859,7.61158 12.65564,11.16647 a 62.804564,62.804564 0 0 1 52.84148,-28.98295 62.804564,62.804564 0 0 1 62.80455,62.80455 62.804564,62.804564 0 0 1 -62.80455,62.80459 62.804564,62.804564 0 0 1 -62.80455,-62.80459 62.804564,62.804564 0 0 1 9.88223,-33.6884 c -4.89579,-2.25067 -9.97865,-4.50834 -15.23435,-6.74565 -35.41961,-15.0779 -64.14149,-31.58975 -76.59072,-21.81605 l 11.40214,4.64283 c -2.34461,-0.47687 -11.04459,-3.16894 -13.51748,-3.49863 -2.08341,0.93295 -3.41529,1.55171 -4.36162,3.45992 l 15.13416,6.39612 -16.27153,-3.61931 c -0.10146,1.43077 0.0944,3.33474 1.16697,4.83979 l 12.79339,5.36806 -12.6784,-2.94759 -0.17988,-0.0171 c 0.37204,10.7567 26.95009,20.547 64.52369,32.86411 -34.55274,-2.10691 -62.9724,-5.84185 -70.616977,6.60219 l 12.303837,0.39848 c -2.36442,0.36625 -11.458388,0.85953 -13.892054,1.40833 -1.630268,1.59787 -2.665214,2.63981 -2.890667,4.75782 l 16.413841,0.748 -16.516306,2.25196 c 0.401277,1.37711 1.246363,3.09453 2.774539,4.13392 l 13.860177,0.59545 -12.91294,1.63489 -0.17533,0.0455 c 4.32808,10.56192 35.93089,9.87894 79.22067,8.1517 -40.68617,15.16827 -70.1808,26.76629 -70.09099,38.19684 l 0.17875,-0.025 12.54064,-3.4826 -12.55317,5.9054 c -1.0078,1.5492 -1.12296,3.4601 -0.9609,4.8853 l 16.10303,-4.3058 -14.84953,7.0314 c 1.02642,1.8664 2.38396,2.4283 4.50507,3.2721 2.45668,-0.4343 11.03468,-3.4943 13.35695,-4.0702 l -11.19493,5.1233 c 12.8526,9.2368 40.84864,-8.4792 75.5968,-25.04601 4.66405,-2.22366 9.18436,-4.45738 13.55848,-6.68189 -3.53139,3.48307 -7.12521,7.1045 -10.76003,10.8636 -30.55613,31.6012 -52.55026,55.05811 -47.50303,65.4163 l 0.15143,-0.1002 9.8162,-8.5467 -8.78358,10.7383 c -0.24177,1.8323 0.47826,3.6066 1.2387,4.8228 l 12.67498,-10.8261 -10.36837,12.7456 c 1.73053,1.2418 3.19629,1.1626 5.47394,1.0098 2.02967,-1.4506 8.4527,-7.9075 10.30006,-9.4279 l -7.8944,9.4473 c 15.5785,2.7961 33.20544,-25.2545 57.42169,-55.1788 1.40227,-1.7329 2.76534,-3.4496 4.12139,-5.1632 -0.83573,2.1538 -1.67068,4.3213 -2.5013,6.5305 -15.47003,41.146 -26.32284,71.414 -17.57283,78.911 l 0.0991,-0.1514 5.60714,-11.746 -3.78781,13.3456 c 0.50677,1.7773 1.87213,3.1188 3.05347,3.9324 l 6.01929,-12.3039 c -0.77269,3.27 -1.51057,6.5491 -2.2087,9.8356 l -0.93131,3.3119 c 0.082,0.018 0.15596,0.023 0.23568,0.038 -4.92531,24.0552 -7.92482,48.3204 -9.69552,70.9517 -1.44296,-11.5455 -11.20727,-25.0061 -26.18451,-33.9332 -14.37559,-8.5685 -26.00869,-7.314 -32.96658,-7.1555 -6.71277,0.153 -5.95847,-1.2194 -4.30697,6.3995 3.13219,14.4499 6.61689,32.9084 24.70331,44.412 9.04323,5.7517 17.86271,8.3866 24.81146,7.9957 3.47437,-0.1954 9.49256,2.9396 11.82567,1.2433 0.43214,-0.3142 0.73669,-0.7953 0.95293,-1.389 -2.83612,52.76776 0.64325,92.77346 0.64325,92.77346 4.66906,0.8855 9.23133,1.8378 14.26662,2.4944 0,0 -2.4464,-22.5266 -2.55822,-56.08506 2.99334,0.01 6.25699,-0.1996 8.43292,0.4668 8.52464,2.6108 20.3011,2.0312 33.30927,-2.359 26.01634,-8.7805 35.9964,-30.6788 44.31066,-47.6965 4.38386,-8.973 4.90195,-7.0339 -3.40186,-9.2766 -8.60704,-2.3245 -22.69558,-7.4434 -43.19834,-1.1795 -17.29185,5.283 -31.24103,15.3071 -38.75361,26.3189 1.41744,-31.2962 5.25045,-67.3686 13.93418,-102.4451 7.35248,-9.54919 11.92902,-28.5715 17.65596,-50.791 -2.07047,30.7166 -4.29208,55.3145 7.13501,62.3343 l 0.39848,-12.3049 c 0.36625,2.3644 0.85953,11.4594 1.40833,13.8932 1.59788,1.6302 2.6398,2.6652 4.75782,2.8906 l 0.748,-16.4138 2.25196,16.5163 c 1.3771,-0.4013 3.09453,-1.2463 4.13392,-2.7746 l 0.59544,-13.8601 1.63489,12.9129 0.0455,0.1753 c 10.59426,-4.3413 9.87463,-36.1193 8.13577,-79.6134 15.32332,40.8246 27.02087,70.4498 38.48264,70.3335 l -0.0262,-0.1788 -3.51116,-12.5326 5.9339,12.53951 c 1.55148,1.0042 3.46279,1.1148 4.8876,0.94949 l -4.34226,-16.09279 7.06557,14.8324 c 1.864,-1.0306 2.42293,-2.3888 3.26182,-4.5119 -0.43993,-2.4556 -3.51852,-11.0268 -4.09976,-13.3478 l 5.14719,11.1835 c 9.20735,-12.8737 -8.57153,-40.8286 -25.21791,-75.5387 -1.58985,-3.3151 -3.18506,-6.5366 -4.77832,-9.7103 2.27387,2.497 4.5876,5.0113 6.97791,7.5551 30.10138,32.0347 52.47717,55.1257 63.06527,50.5804 l -0.0934,-0.1548 -8.06632,-10.2147 10.30463,9.2879 c 1.81857,0.3293 3.62498,-0.3051 4.87621,-1.0064 l -10.20556,-13.1793 12.23438,10.9683 c 1.32327,-1.669 1.31518,-3.1381 1.27171,-5.4204 -1.35174,-2.0968 -7.49449,-8.8215 -8.92475,-10.7395 l 9.05796,8.3372 c 3.5391,-15.4267 -23.63432,-34.3775 -52.36445,-59.99922 -0.76107,-0.67873 -1.51122,-1.3267 -2.26904,-1.9958 0.9929,0.41893 1.9638,0.83886 2.96808,1.25691 40.58249,16.89301 70.4536,28.79241 78.25067,20.30871 l -0.14801,-0.1036 -11.54331,-6.0136 13.20553,4.2511 c 1.79387,-0.4445 3.18186,-1.7622 4.036,-2.9145 l -14.70836,-7.8432 15.65218,4.9946 c 0.52345,-2.0646 -0.0854,-3.4017 -1.05995,-5.4659 -2.09206,-1.3591 -10.45018,-4.97727 -12.54064,-6.14114 l 11.6788,3.89597 c -2.85198,-14.32337 -30.80251,-20.6815 -63.93965,-30.69413 39.51286,1.4849 67.83714,1.52416 71.9183,-8.43519 l -0.17533,-0.0455 -12.91294,-1.63489 13.86018,-0.59544 c 1.52818,-1.03939 2.37325,-2.75682 2.77453,-4.13392 l -16.5163,-2.25196 16.41384,-0.748 c -0.22545,-2.11801 -1.2604,-3.15995 -2.89067,-4.75782 -2.43367,-0.5488 -11.52763,-1.04209 -13.89205,-1.40833 l 12.30384,-0.39848 c -8.28467,-13.48601 -40.9509,-7.9655 -79.4017,-6.11378 -3.14811,0.15161 -6.23974,0.33034 -9.29476,0.52485 2.83499,-0.98216 5.69787,-1.99204 8.59913,-3.04664 36.17932,-13.151 68.44243,-20.68302 70.87201,-36.32289 l -11.50347,4.3878 c 2.0392,-1.2515 10.23601,-5.22162 12.26854,-6.66823 0.88611,-2.10375 1.43823,-3.46408 0.8277,-5.50468 l -15.42676,5.65268 14.36225,-8.4591 c -0.90227,-1.11505 -2.34442,-2.37342 -4.15554,-2.74153 l -13.01426,4.80791 11.27804,-6.49859 0.14345,-0.1093 c -8.14992,-8.14535 -37.48883,5.01 -77.31823,23.6092 -4.67818,2.18458 -9.21493,4.37495 -13.60629,6.55211 3.48434,-3.37155 7.0232,-6.87205 10.59836,-10.51069 26.97973,-27.45881 52.84657,-48.15913 48.29885,-63.31916 l -8.48985,8.91678 c 1.30078,-2.00813 6.98658,-9.12289 8.19725,-11.30421 -0.107,-2.28026 -0.19544,-3.74541 -1.62579,-5.32367 l -11.48411,11.74938 9.31526,-13.82374 c -1.29472,-0.61735 -3.13908,-1.13032 -4.93201,-0.68196 l -9.67161,9.94599 7.37638,-10.72358 0.082,-0.16053 c -10.86454,-3.83789 -31.66958,20.67735 -59.5951,54.62552 -1.51097,1.83683 -2.98398,3.65731 -4.44359,5.47052 0.81422,-2.04668 1.62754,-4.10199 2.43526,-6.19916 13.83577,-35.92304 29.3383,-65.20199 19.13715,-77.30344 l -4.24321,11.55698 c 0.39497,-2.35978 2.78274,-11.14846 3.02615,-13.63134 -1.00492,-2.04966 -1.66907,-3.35933 -3.60906,-4.23865 l -5.86558,15.34706 3.05005,-16.38652 c -1.43343,-0.0516 -3.32973,0.20998 -4.79653,1.33433 l -4.91834,12.97214 2.50357,-12.7729 0.0114,-0.17989 c -9.04321,0.62853 -16.75834,19.84862 -25.53897,48.57437 0.69163,-30.08036 -0.5895,-50.79076 -8.98623,-54.23161 l -0.0455,0.17533 -1.63489,12.9118 -0.59544,-13.86017 c -1.03939,-1.52818 -2.75682,-2.37212 -4.13392,-2.7734 z"
       id="path4435"
       inkscape:connector-curvature="0" />
  </g>
</svg>
