<?xml version="1.0" encoding="UTF-8" standalone="no"?>
<svg
   xmlns:dc="http://purl.org/dc/elements/1.1/"
   xmlns:cc="http://creativecommons.org/ns#"
   xmlns:rdf="http://www.w3.org/1999/02/22-rdf-syntax-ns#"
   xmlns:svg="http://www.w3.org/2000/svg"
   xmlns="http://www.w3.org/2000/svg"
   xmlns:sodipodi="http://sodipodi.sourceforge.net/DTD/sodipodi-0.dtd"
   xmlns:inkscape="http://www.inkscape.org/namespaces/inkscape"
   viewBox="0 0 512.00001 511.99998"
   version="1.1"
   x="0px"
   y="0px"
   id="svg2"
   inkscape:version="0.91 r13725"
   sodipodi:docname="download-cloud.svg"
   width="512"
   height="512">
  <metadata
     id="metadata16">
    <rdf:RDF>
      <cc:Work
         rdf:about="">
        <dc:format>image/svg+xml</dc:format>
        <dc:type
           rdf:resource="http://purl.org/dc/dcmitype/StillImage" />
        <dc:title />
      </cc:Work>
    </rdf:RDF>
  </metadata>
  <defs
     id="defs14" />
  <sodipodi:namedview
     pagecolor="#ffffff"
     bordercolor="#666666"
     borderopacity="1"
     objecttolerance="10"
     gridtolerance="10"
     guidetolerance="10"
     inkscape:pageopacity="0"
     inkscape:pageshadow="2"
     inkscape:window-width="1366"
     inkscape:window-height="715"
     id="namedview12"
     showgrid="false"
     inkscape:zoom="0.36875"
     inkscape:cx="-206.3729"
     inkscape:cy="320"
     inkscape:window-x="-8"
     inkscape:window-y="-8"
     inkscape:window-maximized="1"
     inkscape:current-layer="svg2" />
  <g
     transform="matrix(0.9765625,0,0,0.9765625,-83.076636,-149.78924)"
     id="g4"
     style="fill:#6734bf;fill-opacity:0.94117647">
    <path
       style="color:#000000;font-style:normal;font-variant:normal;font-weight:normal;font-stretch:normal;font-size:medium;line-height:normal;font-family:sans-serif;text-indent:0;text-align:start;text-decoration:none;text-decoration-line:none;text-decoration-style:solid;text-decoration-color:#000000;letter-spacing:normal;word-spacing:normal;text-transform:none;direction:ltr;block-progression:tb;writing-mode:lr-tb;baseline-shift:baseline;text-anchor:start;white-space:normal;clip-rule:nonzero;display:inline;overflow:visible;visibility:visible;opacity:1;isolation:auto;mix-blend-mode:normal;color-interpolation:sRGB;color-interpolation-filters:linearRGB;solid-color:#000000;solid-opacity:1;fill:#6734bf;fill-opacity:0.94117647;fill-rule:nonzero;stroke:none;stroke-width:22.36219788;stroke-linecap:butt;stroke-linejoin:round;stroke-miterlimit:4;stroke-dasharray:none;stroke-dashoffset:0;stroke-opacity:1;color-rendering:auto;image-rendering:auto;shape-rendering:auto;text-rendering:auto;enable-background:accumulate"
       d="m 245.24219,55 c -61.19806,0.0756 -115.18329,38.42308 -136.58008,94.57812 -2.97683,-0.27715 -5.96282,-0.4691 -8.958985,-0.47656 l -0.04883,0 C 44.809329,149.10156 -2e-6,194.12112 0,249.05078 l 0,0.0234 c 0.06043,52.40856 40.962141,95.89511 92.800781,99.48633 1.319162,0.28447 2.664209,0.43174 4.013672,0.43945 l 2.839844,0 c 0,0 42.900863,3.44746 57.083983,-2.47461 10.63405,-4.44018 10.89845,-27.41532 1.41406,-32.06836 -19.39332,-7.14031 -27.35062,-1.29125 -60.640621,-4.72656 -33.289996,-3.43531 -58.33087,-27.73462 -58.375,-60.69141 0.006,-33.83963 26.890301,-60.78099 60.488281,-60.79687 5.71335,0.0161 11.39583,0.84331 16.87891,2.46093 10.73104,3.16522 21.92695,-3.29376 24.55859,-14.16796 11.71687,-48.43586 54.64553,-82.330061 104.21289,-82.398441 36.61326,0.006 70.65438,18.694591 90.41992,49.689451 5.11034,8.01139 15.23705,11.19421 24.01172,7.54688 9.8859,-4.11094 20.47535,-6.23619 31.17188,-6.26172 45.47232,0.0117 81.98242,36.61699 81.98242,82.375 -0.0329,44.81617 -35.17241,81.02195 -79.69531,82.28125 -0.39604,0.0192 -0.79141,0.0505 -1.18555,0.0937 l -1.12305,0 c 0,0 -28.00701,0.15879 -37.36328,3.53515 -10.38857,3.74889 -9.12765,28.02156 -1.41406,32.95118 5.19129,3.31766 38.77734,2.65234 38.77734,2.65234 l 2.86133,0 c 1.21396,-0.004 2.42491,-0.12114 3.61719,-0.34961 C 461.23414,345.21489 511.96156,291.96037 512,227.49805 l 0,-0.0117 C 512,160.64649 457.56907,105.97266 390.85742,105.97266 l -0.041,0 c -10.55163,0.0224 -21.00199,1.5525 -31.14844,4.28711 C 332.05652,75.611832 290.05052,55.00376 245.26758,55 l -0.0254,0 z m 0.47656,204.88086 a 11.182217,11.182217 0 0 0 -11.17969,11.18164 l 0,123.15039 -21.51758,-21.51758 a 11.182217,11.182217 0 0 0 -15.8125,0.002 l -14.53906,14.53711 a 11.182217,11.182217 0 0 0 0,15.8125 l 50.88477,50.88476 14.53906,14.53906 a 11.182217,11.182217 0 0 0 15.8125,0 l 14.53711,-14.53906 50.88476,-50.88476 a 11.182217,11.182217 0 0 0 0,-15.8125 l -14.5371,-14.53711 a 11.182217,11.182217 0 0 0 -15.8125,-0.002 l -21.51758,21.51563 0,-123.14844 A 11.182217,11.182217 0 0 0 266.2793,259.88086 l -20.56055,0 z"
       transform="translate(91.214475,152.15558)"
       id="path6"
       inkscape:connector-curvature="0" />
  </g>
</svg>
