<?xml version="1.0" encoding="UTF-8" standalone="no"?>
<!-- Created with Inkscape (http://www.inkscape.org/) -->

<svg
   xmlns:dc="http://purl.org/dc/elements/1.1/"
   xmlns:cc="http://creativecommons.org/ns#"
   xmlns:rdf="http://www.w3.org/1999/02/22-rdf-syntax-ns#"
   xmlns:svg="http://www.w3.org/2000/svg"
   xmlns="http://www.w3.org/2000/svg"
   xmlns:sodipodi="http://sodipodi.sourceforge.net/DTD/sodipodi-0.dtd"
   xmlns:inkscape="http://www.inkscape.org/namespaces/inkscape"
   width="144.49777mm"
   height="144.49777mm"
   viewBox="0 0 511.99998 511.99998"
   id="svg4148"
   version="1.1"
   inkscape:version="0.91 r13725"
   sodipodi:docname="drink.svg">
  <defs
     id="defs4150">
    <pattern
       y="0"
       x="0"
       height="6"
       width="6"
       patternUnits="userSpaceOnUse"
       id="EMFhbasepattern" />
  </defs>
  <sodipodi:namedview
     id="base"
     pagecolor="#ffffff"
     bordercolor="#666666"
     borderopacity="1.0"
     inkscape:pageopacity="0.0"
     inkscape:pageshadow="2"
     inkscape:zoom="0.5"
     inkscape:cx="-509.45188"
     inkscape:cy="415.30027"
     inkscape:document-units="px"
     inkscape:current-layer="layer1"
     showgrid="false"
     inkscape:window-width="1366"
     inkscape:window-height="715"
     inkscape:window-x="-8"
     inkscape:window-y="-8"
     inkscape:window-maximized="1"
     fit-margin-top="0"
     fit-margin-left="0"
     fit-margin-right="0"
     fit-margin-bottom="0"
     inkscape:snap-to-guides="false"
     inkscape:snap-bbox="false"
     inkscape:bbox-nodes="false"
     inkscape:snap-nodes="true"
     inkscape:snap-global="true"
     showguides="false" />
  <metadata
     id="metadata4153">
    <rdf:RDF>
      <cc:Work
         rdf:about="">
        <dc:format>image/svg+xml</dc:format>
        <dc:type
           rdf:resource="http://purl.org/dc/dcmitype/StillImage" />
        <dc:title />
      </cc:Work>
    </rdf:RDF>
  </metadata>
  <g
     inkscape:label="Layer 1"
     inkscape:groupmode="layer"
     id="layer1"
     transform="translate(-91.214475,-152.15558)">
    <path
       style="color:#000000;font-style:normal;font-variant:normal;font-weight:normal;font-stretch:normal;font-size:medium;line-height:normal;font-family:sans-serif;text-indent:0;text-align:start;text-decoration:none;text-decoration-line:none;text-decoration-style:solid;text-decoration-color:#000000;letter-spacing:normal;word-spacing:normal;text-transform:none;direction:ltr;block-progression:tb;writing-mode:lr-tb;baseline-shift:baseline;text-anchor:start;white-space:normal;clip-rule:nonzero;display:inline;overflow:visible;visibility:visible;opacity:1;isolation:auto;mix-blend-mode:normal;color-interpolation:sRGB;color-interpolation-filters:linearRGB;solid-color:#000000;solid-opacity:1;fill:#ec156f;fill-opacity:0.94117647;fill-rule:nonzero;stroke:none;stroke-width:15.01996326;stroke-linecap:round;stroke-linejoin:round;stroke-miterlimit:4;stroke-dasharray:none;stroke-dashoffset:0;stroke-opacity:1;color-rendering:auto;image-rendering:auto;shape-rendering:auto;text-rendering:auto;enable-background:accumulate"
       d="m 198.97033,158.15557 a 7.3346998,7.3346998 0 0 0 -7.29883,8.06836 l 48.82813,485.33008 a 7.3346998,7.3346998 0 0 0 7.29882,6.60156 l 198.83203,0 a 7.3346998,7.3346998 0 0 0 7.29882,-6.60156 l 48.82813,-485.33008 a 7.3346998,7.3346998 0 0 0 -7.29883,-8.06836 l -296.48827,0 z m 8.10937,14.66797 280.26953,0 -11.80274,117.31445 c -6.42689,3.86256 -19.61161,11.19592 -35.61328,16.68555 -3.08918,1.05979 -6.25989,2.02671 -9.47461,2.89062 l 0,30.79883 c 0,4.19629 -3.37793,7.57422 -7.57422,7.57422 l -62.51172,0 c -4.19628,0 -7.57617,-3.37793 -7.57617,-7.57422 l 0,-47.05078 c -22.52172,-11.27344 -45.44832,-15.26784 -66.1953,-15.48828 -29.48106,-0.31324 -54.50428,6.97108 -67.75781,11.77734 L 207.0797,172.82354 Z m 145.71679,120.63867 c 6.01671,3.01172 12.00462,6.5356 17.91406,10.6543 17.16217,11.9615 39.42813,11.05837 59.74805,5.59765 l 0,-31.71484 c 0,-4.19629 -3.37793,-7.57422 -7.57422,-7.57422 l -62.51172,0 c -4.19628,0 -7.57617,3.37793 -7.57617,7.57422 l 0,15.46289 z m -91.17577,48.04297 c 0.50391,-0.0141 1.01649,0.0231 1.5332,0.11328 l 61.58202,10.75195 c 4.13375,0.7218 6.88,4.62993 6.15821,8.76368 l -10.75196,61.58203 c -0.72179,4.13374 -4.63188,6.87999 -8.76562,6.1582 L 249.7965,418.12237 c -4.13374,-0.7218 -6.88196,-4.63189 -6.16015,-8.76563 l 10.7539,-61.58008 c 0.63157,-3.61702 3.70312,-6.17275 7.23047,-6.27148 z m 153.55858,85.81641 c 3.84821,-0.0155 7.13799,2.87265 7.54883,6.78515 l 6.52735,62.16992 c 0.43823,4.17334 -2.56885,7.88599 -6.74219,8.32422 l -62.16992,6.5293 c -4.17334,0.43823 -7.88599,-2.56885 -8.32422,-6.74219 l -6.5293,-62.17187 c -0.43823,-4.17334 2.56885,-7.88599 6.74219,-8.32422 l 62.17187,-6.52735 c 0.26084,-0.0274 0.51885,-0.0419 0.77539,-0.043 z"
       id="rect4135-1"
       inkscape:connector-curvature="0" />
  </g>
</svg>
