<?xml version="1.0" encoding="UTF-8" standalone="no"?>
<!-- Created with Inkscape (http://www.inkscape.org/) -->

<svg
   xmlns:dc="http://purl.org/dc/elements/1.1/"
   xmlns:cc="http://creativecommons.org/ns#"
   xmlns:rdf="http://www.w3.org/1999/02/22-rdf-syntax-ns#"
   xmlns:svg="http://www.w3.org/2000/svg"
   xmlns="http://www.w3.org/2000/svg"
   xmlns:sodipodi="http://sodipodi.sourceforge.net/DTD/sodipodi-0.dtd"
   xmlns:inkscape="http://www.inkscape.org/namespaces/inkscape"
   width="512"
   height="512"
   viewBox="0 0 511.99997 511.99997"
   id="svg2"
   version="1.1"
   inkscape:version="0.91 r13725"
   sodipodi:docname="eiffel-tower.svg">
  <defs
     id="defs4" />
  <sodipodi:namedview
     id="base"
     pagecolor="#ffffff"
     bordercolor="#666666"
     borderopacity="1.0"
     inkscape:pageopacity="0"
     inkscape:pageshadow="2"
     inkscape:zoom="0.35355339"
     inkscape:cx="-1036.2508"
     inkscape:cy="333.44828"
     inkscape:document-units="px"
     inkscape:current-layer="layer1"
     showgrid="false"
     units="px"
     inkscape:window-width="1366"
     inkscape:window-height="715"
     inkscape:window-x="-8"
     inkscape:window-y="-8"
     inkscape:window-maximized="1"
     showguides="false" />
  <metadata
     id="metadata7">
    <rdf:RDF>
      <cc:Work
         rdf:about="">
        <dc:format>image/svg+xml</dc:format>
        <dc:type
           rdf:resource="http://purl.org/dc/dcmitype/StillImage" />
        <dc:title />
      </cc:Work>
    </rdf:RDF>
  </metadata>
  <g
     inkscape:label="Layer 1"
     inkscape:groupmode="layer"
     id="layer1"
     transform="translate(0,-540.36225)">
    <path
       style="opacity:1;fill:#47b04b;fill-opacity:1;fill-rule:evenodd;stroke:none;stroke-width:20;stroke-linecap:butt;stroke-linejoin:miter;stroke-miterlimit:4;stroke-dasharray:none;stroke-opacity:1"
       d="m 255.99995,540.36224 c -1e-4,4.75696 -0.62672,9.51248 -0.63672,14.26947 0.0181,1.48446 -8.01148,1.57282 -8.44726,2.73241 -0.0801,0.21302 -0.13439,0.79402 -0.17774,1.5 l 6.26172,0 0,2.64647 -6.32422,0 c -0.0288,3.33785 0.1161,7.44814 0.43555,7.93162 0.50697,0.76728 2.75976,2.81833 2.75976,2.81833 0,0 2.55547,1.93865 2.53907,4.78905 -0.0164,2.85041 -0.0418,2.34896 -0.0742,4.93749 -0.0648,5.17705 -0.1669,2.84113 -0.32032,8.91207 -0.53194,20.84122 -1.53784,41.84354 -3.1621,63.46068 -1.18535,15.58332 -0.96789,31.83322 -2.91993,48.10918 -1.95204,16.27598 -3.87829,32.74206 -5.67578,48.26543 -0.90856,7.84647 -5.66601,28.99013 -5.66601,28.99013 l -10.96094,0 c 0,0 3.02806,2.7722 4,12.32026 0.97194,9.54805 3.88774,7.87204 3.28516,10.97261 -1.20517,6.20115 -6.45799,24.00837 -7.75782,29.34168 -2.59967,10.66668 -21.94531,73.18917 -21.94531,73.18917 l -21.79883,0 c 0,0 0.7691,0.3908 1.47852,4.50584 l 8.1582,2.24999 0,26.162 -6.89453,0 c 0.76971,8.96714 -1.1277,17.41242 -2.74219,21.76749 -4.433,11.95805 -0.98793,2.8392 -5.07226,14.12494 -11.92547,32.95225 -32.44245,57.04405 -44.43164,69.16375 l -16.92188,0 0,8.8399 28.63867,0 31.09961,0 16.67578,0 0,-8.8399 -12.73437,0 c 5.06972,-21.1872 23.38439,-73.24771 81.07031,-73.24771 58.26413,0 73.88961,52.66131 77.77539,73.24771 l -12.91601,0 0,8.8399 16.67578,0 31.09961,0 28.63867,0 0,-8.8399 -15.15234,0 c -10.81352,-12.8887 -30.88404,-38.6697 -46.20118,-69.16375 -5.43556,-10.82137 -1.07086,-2.06763 -5.5625,-14.12494 -1.63321,-4.38413 -3.54095,-12.81863 -2.77343,-21.76749 l -6.62305,0 0,-26.162 7.45117,-2.12109 c 0.71543,-4.11705 1.94531,-4.63474 1.94531,-4.63474 l -21.76758,0 c 0,0 -18.88857,-62.52249 -21.48828,-73.18917 -1.29985,-5.33331 -6.55066,-23.14053 -7.75586,-29.34168 -0.6026,-3.10057 2.45678,-1.42456 3.47657,-10.97261 1.0198,-9.54806 4,-12.32026 4,-12.32026 l -11.1543,0 c 0,0 -4.47234,-21.14641 -5.4043,-28.99013 -1.86392,-15.68743 -3.98544,-31.98946 -5.9375,-48.26543 -1.95207,-16.27596 -1.73455,-32.52586 -2.91992,-48.10918 -1.55388,-20.53601 -2.60736,-41.8775 -3.16211,-63.46068 -0.15324,-6.07094 -0.25366,-3.73502 -0.31836,-8.91207 -0.0324,-2.58853 -0.0579,-2.08708 -0.0742,-4.93749 -0.0164,-2.8504 2.09766,-4.78905 2.09766,-4.78905 0,0 2.46749,-1.95419 2.84766,-2.81833 0.23604,-0.53654 0.35482,-4.62387 0.33007,-7.93357 l -6.11523,0 0,-2.64452 6.0625,0 c -0.0398,-0.74279 -0.0928,-1.33439 -0.16992,-1.5 -0.34849,-0.74804 -8.02406,-1.24795 -8.00586,-2.73241 0.0306,-4.75631 -0.69782,-9.51251 -0.63672,-14.26947 z m -14.66016,311.29368 29.26563,0 14.76562,53.89237 -58.79687,0 14.76562,-53.89237 z"
       id="path4140"
       inkscape:connector-curvature="0" />
  </g>
</svg>
