<?xml version="1.0" encoding="UTF-8" standalone="no"?>
<svg
   xmlns:dc="http://purl.org/dc/elements/1.1/"
   xmlns:cc="http://creativecommons.org/ns#"
   xmlns:rdf="http://www.w3.org/1999/02/22-rdf-syntax-ns#"
   xmlns:svg="http://www.w3.org/2000/svg"
   xmlns="http://www.w3.org/2000/svg"
   xmlns:sodipodi="http://sodipodi.sourceforge.net/DTD/sodipodi-0.dtd"
   xmlns:inkscape="http://www.inkscape.org/namespaces/inkscape"
   viewBox="0 0 512.00001 511.99998"
   version="1.1"
   x="0px"
   y="0px"
   id="svg2"
   inkscape:version="0.91 r13725"
   sodipodi:docname="heart.svg"
   width="512"
   height="512">
  <metadata
     id="metadata16">
    <rdf:RDF>
      <cc:Work
         rdf:about="">
        <dc:format>image/svg+xml</dc:format>
        <dc:type
           rdf:resource="http://purl.org/dc/dcmitype/StillImage" />
        <dc:title />
      </cc:Work>
    </rdf:RDF>
  </metadata>
  <defs
     id="defs14" />
  <sodipodi:namedview
     pagecolor="#ffffff"
     bordercolor="#666666"
     borderopacity="1"
     objecttolerance="10"
     gridtolerance="10"
     guidetolerance="10"
     inkscape:pageopacity="0"
     inkscape:pageshadow="2"
     inkscape:window-width="1366"
     inkscape:window-height="715"
     id="namedview12"
     showgrid="false"
     inkscape:zoom="0.52149125"
     inkscape:cx="-193.0289"
     inkscape:cy="273.4564"
     inkscape:window-x="-8"
     inkscape:window-y="-8"
     inkscape:window-maximized="1"
     inkscape:current-layer="svg2" />
  <g
     transform="matrix(0.9765625,0,0,0.9765625,-80.669218,-122.23373)"
     id="g4"
     style="fill:#ff9900;fill-opacity:1">
    <path
       style="color:#000000;font-style:normal;font-variant:normal;font-weight:normal;font-stretch:normal;font-size:medium;line-height:normal;font-family:sans-serif;text-indent:0;text-align:start;text-decoration:none;text-decoration-line:none;text-decoration-style:solid;text-decoration-color:#000000;letter-spacing:normal;word-spacing:normal;text-transform:none;direction:ltr;block-progression:tb;writing-mode:lr-tb;baseline-shift:baseline;text-anchor:start;white-space:normal;clip-rule:nonzero;display:inline;overflow:visible;visibility:visible;opacity:1;isolation:auto;mix-blend-mode:normal;color-interpolation:sRGB;color-interpolation-filters:linearRGB;solid-color:#000000;solid-opacity:1;fill:#ff9900;fill-opacity:1;fill-rule:nonzero;stroke:none;stroke-width:19.25200081;stroke-linecap:butt;stroke-linejoin:bevel;stroke-miterlimit:4;stroke-dasharray:none;stroke-dashoffset:0;stroke-opacity:1;color-rendering:auto;image-rendering:auto;shape-rendering:auto;text-rendering:auto;enable-background:accumulate"
       d="M 225.11256,176.73021 C 155.20649,176.4588 88.749279,229.82477 88.749279,310.95482 99.623719,395.80604 179.08002,400.69519 221.11422,514.98092 188.32534,391.23231 109.11977,384.56147 108.00123,310.95482 c 0,-70.70868 56.82995,-115.2064 117.03516,-114.97265 41.19313,0.15985 83.69179,21.07608 111.25977,71.68164 l 8.45312,15.51758 8.45312,-15.51758 c 33.92978,-62.28372 90.56933,-79.95471 139.34571,-68.4668 48.77638,11.48791 88.94922,52.21361 88.94922,111.75781 -24.70026,171.97112 -255.4929,166.92836 -362.31068,286.93865 125.46843,-99.22038 378.57719,-127.59576 381.56263,-286.93865 0,-68.32002 -47.25762,-117.18169 -103.78906,-130.49609 -52.52909,-12.37175 -113.66987,6.08008 -152.22461,64.10156 -30.78342,-46.335 -75.9658,-67.66066 -119.62305,-67.83008 z"
       id="path6"
       inkscape:connector-curvature="0" />
  </g>
</svg>
