<?xml version="1.0" encoding="UTF-8" standalone="no"?>
<!-- Created with Inkscape (http://www.inkscape.org/) -->

<svg
   xmlns:dc="http://purl.org/dc/elements/1.1/"
   xmlns:cc="http://creativecommons.org/ns#"
   xmlns:rdf="http://www.w3.org/1999/02/22-rdf-syntax-ns#"
   xmlns:svg="http://www.w3.org/2000/svg"
   xmlns="http://www.w3.org/2000/svg"
   xmlns:sodipodi="http://sodipodi.sourceforge.net/DTD/sodipodi-0.dtd"
   xmlns:inkscape="http://www.inkscape.org/namespaces/inkscape"
   width="144.49777mm"
   height="144.49777mm"
   viewBox="0 0 511.99998 511.99998"
   id="svg4148"
   version="1.1"
   inkscape:version="0.91 r13725"
   sodipodi:docname="pants.svg">
  <defs
     id="defs4150">
    <pattern
       y="0"
       x="0"
       height="6"
       width="6"
       patternUnits="userSpaceOnUse"
       id="EMFhbasepattern" />
  </defs>
  <sodipodi:namedview
     id="base"
     pagecolor="#ffffff"
     bordercolor="#666666"
     borderopacity="1.0"
     inkscape:pageopacity="0.0"
     inkscape:pageshadow="2"
     inkscape:zoom="0.5"
     inkscape:cx="-417.87561"
     inkscape:cy="373.40911"
     inkscape:document-units="px"
     inkscape:current-layer="layer1"
     showgrid="false"
     inkscape:window-width="1366"
     inkscape:window-height="715"
     inkscape:window-x="-8"
     inkscape:window-y="-8"
     inkscape:window-maximized="1"
     fit-margin-top="0"
     fit-margin-left="0"
     fit-margin-right="0"
     fit-margin-bottom="0"
     inkscape:snap-to-guides="false"
     inkscape:snap-bbox="false"
     inkscape:bbox-nodes="false"
     inkscape:snap-nodes="true"
     inkscape:snap-global="true"
     showguides="false" />
  <metadata
     id="metadata4153">
    <rdf:RDF>
      <cc:Work
         rdf:about="">
        <dc:format>image/svg+xml</dc:format>
        <dc:type
           rdf:resource="http://purl.org/dc/dcmitype/StillImage" />
        <dc:title />
      </cc:Work>
    </rdf:RDF>
  </metadata>
  <g
     inkscape:label="Layer 1"
     inkscape:groupmode="layer"
     id="layer1"
     transform="translate(-91.214475,-152.15558)">
    <path
       style="color:#000000;font-style:normal;font-variant:normal;font-weight:normal;font-stretch:normal;font-size:medium;line-height:normal;font-family:sans-serif;text-indent:0;text-align:start;text-decoration:none;text-decoration-line:none;text-decoration-style:solid;text-decoration-color:#000000;letter-spacing:normal;word-spacing:normal;text-transform:none;direction:ltr;block-progression:tb;writing-mode:lr-tb;baseline-shift:baseline;text-anchor:start;white-space:normal;clip-rule:nonzero;display:inline;overflow:visible;visibility:visible;opacity:1;isolation:auto;mix-blend-mode:normal;color-interpolation:sRGB;color-interpolation-filters:linearRGB;solid-color:#000000;solid-opacity:1;fill:#ec1561;fill-opacity:1;fill-rule:nonzero;stroke:none;stroke-width:15;stroke-linecap:round;stroke-linejoin:round;stroke-miterlimit:4;stroke-dasharray:none;stroke-dashoffset:0;stroke-opacity:1;color-rendering:auto;image-rendering:auto;shape-rendering:auto;text-rendering:auto;enable-background:accumulate"
       d="m 232.46647,158.15557 c -7.37393,0 -13.53836,6.16443 -13.53836,13.53836 l 0,27.62223 c 0,2.24786 0.57968,4.38101 1.58501,6.26373 -0.88908,1.67607 -1.45571,3.51846 -1.58883,5.41878 l -27.30751,389.80102 -5.06782,0 c -7.60218,0 -13.95226,6.35007 -13.95226,13.95226 l 0,29.45136 c 0,7.60219 6.35008,13.95226 13.95226,13.95226 l 122.4575,0 c 7.60219,0 13.95035,-6.35007 13.95035,-13.95226 l 0,-29.45136 c 10e-6,-6.84457 -5.1505,-12.65613 -11.72448,-13.75008 l 35.17342,-211.2484 35.23064,211.59744 c -5.81002,1.68557 -10.16426,7.10831 -10.16426,13.40104 l 0,29.45136 c 0,7.60219 6.34815,13.95226 13.95034,13.95226 l 122.45751,0 c 7.60219,0 13.95226,-6.35007 13.95226,-13.95226 l 0,-29.45136 c 0,-7.60219 -6.35007,-13.95226 -13.95226,-13.95226 l -6.68717,0 -27.30751,-389.80102 c -0.13311,-1.90017 -0.69818,-3.74282 -1.58691,-5.41878 1.0056,-1.88274 1.58501,-4.01583 1.58501,-6.26373 l 0,-27.62223 c 0,-7.37393 -6.16635,-13.53836 -13.54026,-13.53836 l -227.87667,0 z m 1.11007,14.64844 225.65842,0 0,25.34103 -225.65842,0 0,-25.34103 z m -0.0954,40.05051 50.89379,0 c -0.10961,3.08341 -0.39568,7.20042 -1.11389,11.79695 -1.50635,9.64059 -5.09612,20.68298 -11.3697,26.95655 -5.96284,5.96284 -17.88902,9.28154 -28.50914,10.34356 -5.18624,0.51862 -9.89557,0.58545 -13.37815,0.5207 l 3.47709,-49.61776 z m 65.54795,0 23.93913,0 0,88.08708 a 7.3249512,7.3249512 0 0 0 0.16976,1.64222 c 0.84187,6.84446 6.73919,12.31003 13.7806,12.31003 l 18.97239,0 c 7.60219,0 13.95225,-6.35006 13.95225,-13.95225 l 0,-88.08708 22.79663,0 c 0.1143,3.64953 0.44121,8.59225 1.29509,14.05715 1.74886,11.19274 5.4814,25.0527 15.48386,35.05516 10.31321,10.31321 25.24438,13.34407 37.41073,14.5607 6.83822,0.68382 12.91881,0.67338 17.00021,0.53597 l 22.68028,323.73619 -90.1146,0 -42.76466,-256.84548 a 7.3249512,7.3249512 0 0 0 -14.45008,0 l -42.76465,256.84548 -90.1146,0 22.67838,-323.69995 c 4.04117,0.0981 9.66008,0.0478 15.8596,-0.57221 12.16633,-1.21663 27.09562,-4.24749 37.40882,-14.5607 10.00246,-10.00246 13.73691,-23.86242 15.48577,-35.05516 0.85389,-5.4649 1.18125,-10.40762 1.29509,-14.05715 z m 38.58757,0 17.57813,0 0,87.39089 -17.57813,0 0,-87.39089 z m 69.67735,0 52.03629,0 3.47519,49.58916 c -3.55163,0.103 -8.71838,0.088 -14.51874,-0.4921 -10.62012,-1.06202 -22.5463,-4.38072 -28.50914,-10.34356 -6.27359,-6.27357 -9.86337,-17.31596 -11.36971,-26.95655 -0.7182,-4.59653 -1.00383,-8.71354 -1.11389,-11.79695 z m -220.0489,402.59361 17.68684,0 c 0.0518,5.9e-4 0.10271,0.008 0.1545,0.008 l 97.53227,0 a 7.3249512,7.3249512 0 0 0 0.15449,-0.008 l 5.53513,0 0,28.059 -121.06323,0 0,-28.059 z m 198.87543,0 3.89098,0 a 7.3249512,7.3249512 0 0 0 0.1793,0.008 l 97.53418,0 c 0.0518,0 0.10282,-0.007 0.15449,-0.008 l 19.30428,0 0,28.059 -121.06323,0 0,-28.059 z"
       id="rect4135"
       inkscape:connector-curvature="0" />
  </g>
</svg>
