<?xml version="1.0" encoding="UTF-8" standalone="no"?>
<svg
   xmlns:dc="http://purl.org/dc/elements/1.1/"
   xmlns:cc="http://creativecommons.org/ns#"
   xmlns:rdf="http://www.w3.org/1999/02/22-rdf-syntax-ns#"
   xmlns:svg="http://www.w3.org/2000/svg"
   xmlns="http://www.w3.org/2000/svg"
   xmlns:sodipodi="http://sodipodi.sourceforge.net/DTD/sodipodi-0.dtd"
   xmlns:inkscape="http://www.inkscape.org/namespaces/inkscape"
   viewBox="0 0 512.00001 511.99998"
   version="1.1"
   x="0px"
   y="0px"
   id="svg2"
   inkscape:version="0.91 r13725"
   sodipodi:docname="phone.svg"
   width="512"
   height="512">
  <metadata
     id="metadata16">
    <rdf:RDF>
      <cc:Work
         rdf:about="">
        <dc:format>image/svg+xml</dc:format>
        <dc:type
           rdf:resource="http://purl.org/dc/dcmitype/StillImage" />
        <dc:title />
      </cc:Work>
    </rdf:RDF>
  </metadata>
  <defs
     id="defs14" />
  <sodipodi:namedview
     pagecolor="#ffffff"
     bordercolor="#666666"
     borderopacity="1"
     objecttolerance="10"
     gridtolerance="10"
     guidetolerance="10"
     inkscape:pageopacity="0"
     inkscape:pageshadow="2"
     inkscape:window-width="1366"
     inkscape:window-height="715"
     id="namedview12"
     showgrid="false"
     inkscape:zoom="0.7375"
     inkscape:cx="-184.84717"
     inkscape:cy="301.66777"
     inkscape:window-x="-8"
     inkscape:window-y="-8"
     inkscape:window-maximized="1"
     inkscape:current-layer="svg2" />
  <g
     transform="translate(-87.991815,-158.1556)"
     id="g4"
     style="fill:#ff9900;fill-opacity:1">
    <path
       style="opacity:1;fill:#ff9900;fill-opacity:1;fill-rule:nonzero;stroke:none;stroke-width:16.29695129;stroke-linecap:square;stroke-linejoin:miter;stroke-miterlimit:10;stroke-dasharray:none;stroke-dashoffset:0;stroke-opacity:1"
       d="m 235.66777,164.15558 c -14.37774,0 -25.9533,12.62789 -25.9533,28.31268 l 0,443.37463 c 0,15.6848 11.57556,28.31269 25.9533,28.31269 l 216.6481,0 c 14.37774,0 25.95329,-12.62789 25.95329,-28.31269 l 0,-443.37463 c 0,-15.68479 -11.57555,-28.31268 -25.95329,-28.31268 z m -2.2316,46.875 221.11129,0 0,379.88281 -221.11129,0 z m 110.55565,396.48437 c 9.88791,0 19.8555,8.74444 19.8555,19.53125 0,10.78682 -9.96759,19.53125 -19.8555,19.53125 -9.88791,0 -19.85551,-8.74444 -19.8555,-19.53125 -1e-5,-10.7868 9.96759,-19.53125 19.8555,-19.53125 z"
       id="path6"
       inkscape:connector-curvature="0"
       sodipodi:nodetypes="ssssssssscccccsssss" />
  </g>
</svg>
