<?xml version="1.0" encoding="UTF-8" standalone="no"?>
<!-- Created with Inkscape (http://www.inkscape.org/) -->

<svg
   xmlns:dc="http://purl.org/dc/elements/1.1/"
   xmlns:cc="http://creativecommons.org/ns#"
   xmlns:rdf="http://www.w3.org/1999/02/22-rdf-syntax-ns#"
   xmlns:svg="http://www.w3.org/2000/svg"
   xmlns="http://www.w3.org/2000/svg"
   xmlns:sodipodi="http://sodipodi.sourceforge.net/DTD/sodipodi-0.dtd"
   xmlns:inkscape="http://www.inkscape.org/namespaces/inkscape"
   width="144.49777mm"
   height="144.49777mm"
   viewBox="0 0 511.99998 511.99998"
   id="svg4148"
   version="1.1"
   inkscape:version="0.91 r13725"
   sodipodi:docname="sparkles.svg">
  <defs
     id="defs4150">
    <pattern
       y="0"
       x="0"
       height="6"
       width="6"
       patternUnits="userSpaceOnUse"
       id="EMFhbasepattern" />
  </defs>
  <sodipodi:namedview
     id="base"
     pagecolor="#ffffff"
     bordercolor="#666666"
     borderopacity="1.0"
     inkscape:pageopacity="0.0"
     inkscape:pageshadow="2"
     inkscape:zoom="0.70710678"
     inkscape:cx="69.260617"
     inkscape:cy="212.73817"
     inkscape:document-units="px"
     inkscape:current-layer="layer1"
     showgrid="false"
     inkscape:window-width="1366"
     inkscape:window-height="715"
     inkscape:window-x="-8"
     inkscape:window-y="-8"
     inkscape:window-maximized="1"
     fit-margin-top="0"
     fit-margin-left="0"
     fit-margin-right="0"
     fit-margin-bottom="0"
     inkscape:snap-to-guides="false"
     inkscape:snap-bbox="false"
     inkscape:bbox-nodes="false"
     inkscape:snap-nodes="true"
     inkscape:snap-global="true" />
  <metadata
     id="metadata4153">
    <rdf:RDF>
      <cc:Work
         rdf:about="">
        <dc:format>image/svg+xml</dc:format>
        <dc:type
           rdf:resource="http://purl.org/dc/dcmitype/StillImage" />
        <dc:title />
      </cc:Work>
    </rdf:RDF>
  </metadata>
  <g
     inkscape:label="Layer 1"
     inkscape:groupmode="layer"
     id="layer1"
     transform="translate(-91.214475,-152.15558)">
    <path
       style="opacity:1;fill:#1194ff;fill-opacity:0.94117647;fill-rule:nonzero;stroke:none;stroke-width:0.60685283;stroke-linecap:square;stroke-linejoin:miter;stroke-miterlimit:4;stroke-dasharray:none;stroke-dashoffset:0;stroke-opacity:1"
       d="m 342.73603,158.13728 c -5.08918,41.55608 -3.58825,53.79012 -39.12984,58.41912 34.93802,5.67458 35.44044,18.47338 39.12984,58.41914 4.85966,-40.17879 3.91473,-52.21593 39.13174,-58.41914 -35.49212,-4.55949 -34.2984,-16.91199 -39.13174,-58.41912 z m -103.39428,37.8822 C 221.79076,346.74145 226.13085,391.5933 97.250709,408.14984 225.13186,430.67509 221.6952,474.37978 239.34175,620.27831 252.73882,475.22594 254.56465,428.75554 381.43279,408.14984 252.37301,391.34084 257.82172,346.91923 239.34175,196.01948 Z m 281.1564,3.88989 c -9.47135,81.33674 -7.13019,105.53986 -76.68005,114.47456 69.01075,12.15568 67.15713,35.74266 76.68005,114.47645 7.2297,-78.27716 8.21405,-103.35663 76.67815,-114.47645 -69.64681,-9.07094 -66.70547,-33.04188 -76.67815,-114.47456 z m -358.89143,4.61104 c -3.62608,29.60902 -2.55428,38.32699 -27.87794,41.62519 24.89362,4.04318 25.2492,13.15972 27.87794,41.6214 3.46254,-28.62771 2.78934,-37.20157 27.88174,-41.6214 -25.28842,-3.24868 -24.43796,-12.05105 -27.88174,-41.62519 z m 238.53537,97.67109 c -3.4049,30.67644 -2.40078,39.70569 -26.18004,43.12278 23.37542,4.18897 23.71165,13.63699 26.18004,43.12469 3.2514,-29.65972 2.61794,-38.54551 26.18005,-43.12469 -23.74616,-3.36577 -22.94626,-12.48248 -26.18005,-43.12278 z m 181.87906,113.29174 c -1.9759,17.80173 -1.39407,23.0429 -15.19332,25.02587 13.5649,2.43087 13.76089,7.91395 15.19332,25.02586 1.8868,-17.21172 1.52006,-22.36855 15.19332,-25.02586 -13.78006,-1.95319 -13.31674,-7.24512 -15.19332,-25.02587 z m -131.3199,12.97079 c -6.64109,57.03146 -5.00124,74.00186 -53.768,80.26668 48.38876,8.52329 47.09076,25.06229 53.768,80.26859 5.0693,-54.88612 5.75875,-72.47164 53.76419,-80.26859 -48.83475,-6.36033 -46.77159,-23.16795 -53.76419,-80.26668 z m -272.49139,41.72632 c -1.97591,17.80172 -1.39217,23.0429 -15.19142,25.02586 13.56491,2.43088 13.75898,7.91205 15.19142,25.02396 1.88679,-17.21173 1.52007,-22.36664 15.1933,-25.02396 -13.78004,-1.95319 -13.31672,-7.24511 -15.1933,-25.02586 z m 169.38711,22.46757 c -1.9759,17.80173 -1.39407,23.0429 -15.19332,25.02587 13.56491,2.43086 13.76088,7.91395 15.19332,25.02586 1.8868,-17.21172 1.52007,-22.36855 15.19331,-25.02586 -13.78005,-1.95319 -13.31673,-7.24512 -15.19331,-25.02587 z m -222.50076,34.18689 c -3.62607,29.60902 -2.55808,38.32508 -27.881748,41.62329 24.893618,4.04319 25.253028,13.16161 27.881748,41.62329 3.46256,-28.6277 2.78934,-37.20347 27.88175,-41.62329 -25.28841,-3.24868 -24.43795,-12.04915 -27.88175,-41.62329 z m 441.49888,30.51255 c -3.98041,35.86122 -2.8058,46.41766 -30.60411,50.4123 27.32625,4.89695 27.7185,15.94263 30.60411,50.4142 3.80092,-34.67267 3.06156,-45.06107 30.60602,-50.4142 -27.75963,-3.93465 -26.82567,-14.59333 -30.60602,-50.4123 z m -257.91811,10.99627 c -2.80776,22.92701 -1.97935,29.67564 -21.58809,32.22953 19.27575,3.13071 19.5526,10.19096 21.58809,32.22953 2.68112,-22.16712 2.15843,-28.80715 21.58809,-32.22953 -19.58144,-2.51553 -18.92148,-9.32953 -21.58809,-32.22953 z"
       id="path4141"
       inkscape:connector-curvature="0" />
  </g>
</svg>
