<?xml version="1.0" encoding="UTF-8" standalone="no"?>
<!-- Created with Inkscape (http://www.inkscape.org/) -->

<svg
   xmlns:dc="http://purl.org/dc/elements/1.1/"
   xmlns:cc="http://creativecommons.org/ns#"
   xmlns:rdf="http://www.w3.org/1999/02/22-rdf-syntax-ns#"
   xmlns:svg="http://www.w3.org/2000/svg"
   xmlns="http://www.w3.org/2000/svg"
   xmlns:sodipodi="http://sodipodi.sourceforge.net/DTD/sodipodi-0.dtd"
   xmlns:inkscape="http://www.inkscape.org/namespaces/inkscape"
   width="512"
   height="512"
   viewBox="0 0 511.99997 511.99997"
   id="svg2"
   version="1.1"
   inkscape:version="0.91 r13725"
   sodipodi:docname="tire.svg">
  <defs
     id="defs4" />
  <sodipodi:namedview
     id="base"
     pagecolor="#ffffff"
     bordercolor="#666666"
     borderopacity="1.0"
     inkscape:pageopacity="0.0"
     inkscape:pageshadow="2"
     inkscape:zoom="0.5"
     inkscape:cx="-187.04633"
     inkscape:cy="351.25742"
     inkscape:document-units="px"
     inkscape:current-layer="layer1"
     showgrid="false"
     units="px"
     inkscape:window-width="1366"
     inkscape:window-height="715"
     inkscape:window-x="-8"
     inkscape:window-y="-8"
     inkscape:window-maximized="1" />
  <metadata
     id="metadata7">
    <rdf:RDF>
      <cc:Work
         rdf:about="">
        <dc:format>image/svg+xml</dc:format>
        <dc:type
           rdf:resource="http://purl.org/dc/dcmitype/StillImage" />
        <dc:title />
      </cc:Work>
    </rdf:RDF>
  </metadata>
  <g
     inkscape:label="Layer 1"
     inkscape:groupmode="layer"
     id="layer1"
     transform="translate(0,-540.36225)">
    <path
       style="opacity:1;fill:#ec1561;fill-opacity:1;fill-rule:evenodd;stroke:none;stroke-width:20;stroke-linecap:butt;stroke-linejoin:miter;stroke-miterlimit:4;stroke-dasharray:none;stroke-opacity:1"
       d="M 255.99997,546.36222 A 250.00063,249.99874 0 0 0 5.9999995,796.36029 250.00063,249.99874 0 0 0 255.99997,1046.3622 250.00063,249.99874 0 0 0 505.99994,796.36029 250.00063,249.99874 0 0 0 255.99997,546.36222 Z m 2.29264,92.67424 A 158.91459,158.91338 0 0 1 417.20524,797.95101 158.91459,158.91338 0 0 1 258.29261,956.86366 158.91459,158.91338 0 0 1 99.376148,797.95101 158.91459,158.91338 0 0 1 258.29261,639.03646 Z m -0.10492,10.31113 A 149.00026,148.99913 0 0 0 109.18564,798.34393 149.00026,148.99913 0 0 0 258.18769,947.34408 149.00026,148.99913 0 0 0 407.18976,798.34393 149.00026,148.99913 0 0 0 258.18769,649.34759 Z m 0,5.59234 a 143.4061,143.40501 0 0 1 143.40591,143.404 143.4061,143.40501 0 0 1 -143.40591,143.4078 143.4061,143.40501 0 0 1 -143.40398,-143.4078 143.4061,143.40501 0 0 1 143.40398,-143.404 z m -2.12096,16.29066 c -11.04266,0.0221 -22.10742,2.59418 -25.56038,7.64848 -6.90593,10.10856 12.07954,84.27046 25.49362,84.27046 13.41429,0 32.22248,-73.98484 25.49362,-84.27046 -3.36443,-5.14282 -14.38421,-7.67061 -25.42686,-7.64848 z m 69.64301,20.56122 c -0.40298,0.0163 -0.79323,0.0589 -1.1692,0.1297 -12.03105,2.26465 -51.04638,68.1306 -41.56113,77.61573 9.48523,9.48526 75.10066,-29.532 77.61573,-41.56303 2.43648,-11.65504 -22.39301,-36.68804 -34.8854,-36.1824 z m -139.4367,7.86973 c -12.47779,-0.71863 -37.07945,24.55022 -34.88541,36.20528 2.26463,12.03103 68.13068,51.04625 77.61573,41.56112 9.48544,-9.48524 -29.52988,-75.10068 -41.56112,-77.61573 -0.37597,-0.0786 -0.7667,-0.1275 -1.1692,-0.15067 z m 182.38827,65.95038 c -22.57135,0.35189 -75.36886,15.63658 -75.36886,26.95465 0,13.41415 73.98665,32.22241 84.27237,25.49362 10.28572,-6.72881 10.10866,-44.08138 0,-50.98724 -1.57947,-1.07905 -4.72362,-1.5262 -8.90351,-1.46103 z m -221.35349,7.93457 c -4.19227,-0.0776 -7.35552,0.35053 -8.96264,1.4019 -10.28572,6.72881 -10.10865,44.08137 0,50.98723 10.10865,6.90588 84.27238,-12.0796 84.27238,-25.49362 0,-11.31819 -52.67151,-26.47663 -75.30974,-26.89551 z m 112.65753,1.28364 a 21.532221,21.532057 0 0 0 -21.53206,21.53206 21.532221,21.532057 0 0 0 21.53206,21.53206 21.532221,21.532057 0 0 0 21.53206,-21.53206 21.532221,21.532057 0 0 0 -21.53206,-21.53206 z m 29.60586,45.51506 c -2.22942,-0.0242 -3.94264,0.43313 -4.98009,1.47056 -9.48523,9.48522 29.53201,75.1007 41.56303,77.61573 12.03125,2.51508 38.31924,-24.02351 36.05461,-36.0546 -2.01694,-10.71513 -54.48372,-42.83447 -72.63755,-43.03169 z m -58.26378,1.61362 c -18.11304,0.19726 -70.40503,32.3167 -72.64517,43.03168 -2.51489,12.03123 24.02317,38.31724 36.0546,36.0527 12.03106,-2.26461 51.04617,-68.1306 41.56113,-77.61573 -1.03745,-1.03743 -2.74614,-1.49288 -4.97056,-1.46865 z m 28.60261,11.86561 c -13.41429,0 -32.22441,73.98483 -25.49554,84.27047 6.72886,10.28565 44.08322,10.10858 50.98916,0 6.90592,-10.10856 -12.07953,-84.27047 -25.49362,-84.27047 z"
       id="path4186"
       inkscape:connector-curvature="0" />
  </g>
</svg>
