<?xml version="1.0" encoding="UTF-8" standalone="no"?>
<!-- Created with Inkscape (http://www.inkscape.org/) -->

<svg
   xmlns:dc="http://purl.org/dc/elements/1.1/"
   xmlns:cc="http://creativecommons.org/ns#"
   xmlns:rdf="http://www.w3.org/1999/02/22-rdf-syntax-ns#"
   xmlns:svg="http://www.w3.org/2000/svg"
   xmlns="http://www.w3.org/2000/svg"
   xmlns:sodipodi="http://sodipodi.sourceforge.net/DTD/sodipodi-0.dtd"
   xmlns:inkscape="http://www.inkscape.org/namespaces/inkscape"
   width="512"
   height="512"
   viewBox="0 0 512.00001 512.00001"
   id="svg2"
   version="1.1"
   inkscape:version="0.91 r13725"
   sodipodi:docname="tulip.svg">
  <defs
     id="defs4">
    <clipPath
       clipPathUnits="userSpaceOnUse"
       id="clipPath7556">
      <path
         style="opacity:1;fill:#6bb18c;fill-opacity:1;fill-rule:nonzero;stroke:none;stroke-width:15;stroke-linecap:round;stroke-linejoin:round;stroke-miterlimit:4;stroke-dasharray:none;stroke-dashoffset:0;stroke-opacity:1"
         d="m -134.79536,926.81359 c -7.13162,14.59711 -15.69127,33.37969 -38.00699,40.91124 -11.15786,3.76578 -21.25939,4.26365 -28.57147,2.02428 -3.65603,-1.11969 -10.90041,0.64779 -12.94506,-1.77415 -2.04466,-2.42182 1.11041,-9.03306 1.11043,-12.62457 6e-5,-14.36571 15.91725,-30.62401 38.44182,-37.5056 17.5864,-5.37291 29.67079,-0.98247 37.05355,1.01143 7.12266,1.92364 6.67801,0.26076 2.91772,7.95737 z"
         id="path7558"
         inkscape:connector-curvature="0"
         sodipodi:nodetypes="ssssssss"
         clip-path="none"
         mask="none" />
    </clipPath>
    <mask
       maskUnits="userSpaceOnUse"
       id="mask7582">
      <path
         sodipodi:nodetypes="ccccc"
         inkscape:connector-curvature="0"
         id="path7584"
         d="m -789.9642,647.58325 c -80.5326,73.16964 -71.64761,219.88701 -64.00761,276.30615 l 13.56592,-1.8378 c -6.96153,-51.40893 -21.34368,-192.00385 63.11629,-269.28977 z"
         style="color:#000000;font-style:normal;font-variant:normal;font-weight:normal;font-stretch:normal;font-size:medium;line-height:normal;font-family:sans-serif;text-indent:0;text-align:start;text-decoration:none;text-decoration-line:none;text-decoration-style:solid;text-decoration-color:#000000;letter-spacing:normal;word-spacing:normal;text-transform:none;direction:ltr;block-progression:tb;writing-mode:lr-tb;baseline-shift:baseline;text-anchor:start;white-space:normal;clip-rule:nonzero;display:inline;overflow:visible;visibility:visible;opacity:1;isolation:auto;mix-blend-mode:normal;color-interpolation:sRGB;color-interpolation-filters:linearRGB;solid-color:#000000;solid-opacity:1;fill:#ef9688;fill-opacity:1;fill-rule:evenodd;stroke:none;stroke-width:15;stroke-linecap:butt;stroke-linejoin:miter;stroke-miterlimit:4;stroke-dasharray:none;stroke-dashoffset:0;stroke-opacity:1;color-rendering:auto;image-rendering:auto;shape-rendering:auto;text-rendering:auto;enable-background:accumulate"
         mask="none" />
    </mask>
  </defs>
  <sodipodi:namedview
     id="base"
     pagecolor="#ffffff"
     bordercolor="#666666"
     borderopacity="1.0"
     inkscape:pageopacity="0.0"
     inkscape:pageshadow="2"
     inkscape:zoom="0.50000001"
     inkscape:cx="-472.91798"
     inkscape:cy="202.90504"
     inkscape:document-units="px"
     inkscape:current-layer="layer1"
     showgrid="false"
     units="px"
     showborder="true"
     inkscape:showpageshadow="false"
     showguides="false"
     inkscape:window-width="1366"
     inkscape:window-height="715"
     inkscape:window-x="-8"
     inkscape:window-y="-8"
     inkscape:window-maximized="1" />
  <metadata
     id="metadata7">
    <rdf:RDF>
      <cc:Work
         rdf:about="">
        <dc:format>image/svg+xml</dc:format>
        <dc:type
           rdf:resource="http://purl.org/dc/dcmitype/StillImage" />
        <dc:title />
      </cc:Work>
    </rdf:RDF>
  </metadata>
  <g
     inkscape:label="Layer 1"
     inkscape:groupmode="layer"
     id="layer1"
     transform="translate(0,-540.36216)">
    <path
       style="opacity:1;fill:#1194ff;fill-opacity:1;fill-rule:nonzero;stroke:none;stroke-width:15;stroke-linecap:round;stroke-linejoin:round;stroke-miterlimit:4;stroke-dasharray:none;stroke-dashoffset:0;stroke-opacity:1"
       mask="none"
       clip-path="none"
       d="m 258.24745,546.36216 c 0,0 -11.51837,5.99344 -22.09707,14.56153 6.15207,3.19942 12.17783,7.08829 17.79208,11.83815 2.67999,2.26737 5.18509,4.83037 7.52593,7.62929 7.65344,-9.03674 17.5168,-14.18335 24.90217,-20.14769 -12.34996,-7.3019 -28.12311,-13.88128 -28.12311,-13.88128 z m -87.27297,4.05743 0,143.69945 0.0505,0 c -0.0196,0.33077 -0.0367,0.66167 -0.0505,0.99272 -6e-5,31.21806 25.30939,56.5251 56.52744,56.52505 31.21807,5e-5 56.5251,-25.307 56.52505,-56.52505 -0.009,-0.33101 -0.0214,-0.6619 -0.0361,-0.99272 l 0.0361,0 c 0,0 1.07764,-78.51797 -30.921,-110.51659 -31.99862,-31.99862 -82.13149,-33.18286 -82.13149,-33.18286 z m 170.05105,0 c 0,0 -35.67864,1.0046 -74.62718,37.75707 27.79847,34.30729 26.81791,105.94238 26.81791,105.94238 l -0.0361,0 c 0.0146,0.33082 0.0274,0.66171 0.0361,0.99272 5e-5,29.29304 -22.2837,53.37725 -50.82351,56.23659 9.39096,0.14488 22.76771,0.29956 42.10534,0.28845 31.21805,5e-5 56.52749,-25.30699 56.52744,-56.52504 -0.009,-0.33101 -0.0214,-0.66192 -0.0361,-0.99272 l 0.0361,0 0,-143.69945 z m -137.6614,200.12834 -20.01788,36.50957 64.2,-19.47947 c 16.30913,45.45907 13.85598,92.59953 3.7209,134.72892 -0.66126,-15.02672 -3.83223,-31.42665 -17.74639,-45.38157 -9.39476,-9.4221 -19.36327,-15.00739 -27.88755,-16.41956 -4.26214,-0.70607 -10.70262,-6.13793 -13.98945,-4.71603 -3.28678,1.4218 -3.42157,9.69716 -5.22801,13.33083 -7.22563,14.53436 0.70225,38.99039 20.02991,57.2822 15.09035,14.28162 29.52515,15.91807 37.99744,17.6142 0.3002,0.0601 0.50116,0.11159 0.77639,0.17066 -21.12814,67.83721 -58.5129,117.95362 -58.5129,117.95362 5.06824,1.7455 9.83046,2.8638 14.66007,4.2209 0,0 41.39776,-59.09348 62.19293,-133.57279 1.52094,0.77602 3.02675,1.53257 3.95646,2.33638 9.79574,8.46941 30.26517,7.20136 48.23715,-4.10068 14.03189,-8.82425 18.16422,-19.65157 21.15722,-25.86124 2.88749,-5.99096 3.75863,-4.7087 -3.70648,-6.68225 -14.15803,-3.74285 -32.01221,-8.97846 -50.30431,1.79796 -6.0647,3.57298 -10.86717,7.67624 -14.23221,11.87419 8.62228,-40.09384 10.10064,-83.28436 -4.32422,-123.39553 l 59.26043,18.29926 -18.78961,-36.50957 -47.22759,13.00875 2.14891,-1.25233 -5.64386,0.77399 -5.64625,-0.77399 2.14889,1.25233 -47.22999,-13.00875 z"
       id="path4572"
       inkscape:connector-curvature="0" />
  </g>
</svg>
