<?xml version="1.0" encoding="UTF-8" standalone="no"?>
<!-- Created with Inkscape (http://www.inkscape.org/) -->

<svg
   xmlns:dc="http://purl.org/dc/elements/1.1/"
   xmlns:cc="http://creativecommons.org/ns#"
   xmlns:rdf="http://www.w3.org/1999/02/22-rdf-syntax-ns#"
   xmlns:svg="http://www.w3.org/2000/svg"
   xmlns="http://www.w3.org/2000/svg"
   xmlns:sodipodi="http://sodipodi.sourceforge.net/DTD/sodipodi-0.dtd"
   xmlns:inkscape="http://www.inkscape.org/namespaces/inkscape"
   width="144.49777mm"
   height="144.49777mm"
   viewBox="0 0 511.99998 511.99998"
   id="svg4148"
   version="1.1"
   inkscape:version="0.91 r13725"
   sodipodi:docname="tv.svg">
  <defs
     id="defs4150">
    <pattern
       y="0"
       x="0"
       height="6"
       width="6"
       patternUnits="userSpaceOnUse"
       id="EMFhbasepattern" />
  </defs>
  <sodipodi:namedview
     id="base"
     pagecolor="#ffffff"
     bordercolor="#666666"
     borderopacity="1.0"
     inkscape:pageopacity="0.0"
     inkscape:pageshadow="2"
     inkscape:zoom="0.3535534"
     inkscape:cx="207.83456"
     inkscape:cy="96.851505"
     inkscape:document-units="px"
     inkscape:current-layer="layer1"
     showgrid="false"
     inkscape:window-width="1366"
     inkscape:window-height="715"
     inkscape:window-x="-8"
     inkscape:window-y="-8"
     inkscape:window-maximized="1"
     fit-margin-top="0"
     fit-margin-left="0"
     fit-margin-right="0"
     fit-margin-bottom="0"
     inkscape:snap-to-guides="false"
     inkscape:snap-bbox="false"
     inkscape:bbox-nodes="false"
     inkscape:snap-nodes="true"
     inkscape:snap-global="true" />
  <metadata
     id="metadata4153">
    <rdf:RDF>
      <cc:Work
         rdf:about="">
        <dc:format>image/svg+xml</dc:format>
        <dc:type
           rdf:resource="http://purl.org/dc/dcmitype/StillImage" />
        <dc:title />
      </cc:Work>
    </rdf:RDF>
  </metadata>
  <g
     inkscape:label="Layer 1"
     inkscape:groupmode="layer"
     id="layer1"
     transform="translate(-91.214475,-152.15558)">
    <path
       style="color:#000000;font-style:normal;font-variant:normal;font-weight:normal;font-stretch:normal;font-size:medium;line-height:normal;font-family:sans-serif;text-indent:0;text-align:start;text-decoration:none;text-decoration-line:none;text-decoration-style:solid;text-decoration-color:#000000;letter-spacing:normal;word-spacing:normal;text-transform:none;direction:ltr;block-progression:tb;writing-mode:lr-tb;baseline-shift:baseline;text-anchor:start;white-space:normal;clip-rule:nonzero;display:inline;overflow:visible;visibility:visible;opacity:1;isolation:auto;mix-blend-mode:normal;color-interpolation:sRGB;color-interpolation-filters:linearRGB;solid-color:#000000;solid-opacity:1;fill:#ec156f;fill-opacity:0.94117647;fill-rule:nonzero;stroke:none;stroke-width:14.99748039;stroke-linecap:round;stroke-linejoin:round;stroke-miterlimit:4;stroke-dasharray:none;stroke-dashoffset:0;stroke-opacity:1;color-rendering:auto;image-rendering:auto;shape-rendering:auto;text-rendering:auto;enable-background:accumulate"
       d="m 193.29524,158.15702 a 7.3249512,7.32493 0 0 0 -4.8542,12.6762 l 146.69418,141.04802 -197.43537,0 c -22.30246,0 -40.485382,18.18479 -40.485382,40.48718 l 0,265.29998 c 0,22.30238 18.182922,40.48717 40.485382,40.48717 l 419.02923,0 c 22.30246,0 40.48538,-18.18479 40.48538,-40.48717 l 0,-265.29998 c 0,-22.30239 -18.18292,-40.48718 -40.48538,-40.48718 l -196.45882,0 146.69418,-141.04802 a 7.3249512,7.32493 0 0 0 -5.07543,-12.6762 7.3249512,7.32493 0 0 0 -5.07738,2.11715 L 347.70274,303.64344 198.59386,160.27417 a 7.3249512,7.32493 0 0 0 -5.29862,-2.11715 z m -55.59539,168.37071 419.02923,0 c 14.44193,0 25.83886,11.3988 25.83886,25.84069 l 0,265.29998 c 0,14.44188 -11.39693,25.84068 -25.83886,25.84068 l -419.02923,0 c -14.44192,0 -25.83886,-11.3988 -25.83886,-25.84068 l 0,-265.29998 c 0,-14.44189 11.39694,-25.84069 25.83886,-25.84069 z m 99.71427,44.18743 c -47.19034,0 -85.40916,38.22059 -85.40916,85.41081 l 0,62.49982 c 0,47.19022 38.21882,85.40892 85.40916,85.40892 l 219.60069,0 c 47.19035,0 85.40917,-38.2187 85.40917,-85.40892 l 0,-62.49982 c 0,-47.19022 -38.21882,-85.41081 -85.40917,-85.41081 l -219.60069,0 z m 0,14.64839 219.60069,0 c 39.32849,0 70.76073,31.43405 70.76073,70.76242 l 0,62.49982 c 0,39.32838 -31.43224,70.76053 -70.76073,70.76053 l -219.60069,0 c -39.3285,0 -70.76072,-31.43215 -70.76072,-70.76053 l 0,-62.49982 c 0,-39.32837 31.43222,-70.76242 70.76072,-70.76242 z"
       id="rect4135"
       inkscape:connector-curvature="0" />
  </g>
</svg>
