<?xml version="1.0" encoding="UTF-8" standalone="no"?>
<!-- Created with Inkscape (http://www.inkscape.org/) -->

<svg
   xmlns:dc="http://purl.org/dc/elements/1.1/"
   xmlns:cc="http://creativecommons.org/ns#"
   xmlns:rdf="http://www.w3.org/1999/02/22-rdf-syntax-ns#"
   xmlns:svg="http://www.w3.org/2000/svg"
   xmlns="http://www.w3.org/2000/svg"
   xmlns:sodipodi="http://sodipodi.sourceforge.net/DTD/sodipodi-0.dtd"
   xmlns:inkscape="http://www.inkscape.org/namespaces/inkscape"
   width="144.49777mm"
   height="144.49777mm"
   viewBox="0 0 511.99998 511.99998"
   id="svg4148"
   version="1.1"
   inkscape:version="0.91 r13725"
   sodipodi:docname="view.svg">
  <defs
     id="defs4150">
    <pattern
       y="0"
       x="0"
       height="6"
       width="6"
       patternUnits="userSpaceOnUse"
       id="EMFhbasepattern" />
  </defs>
  <sodipodi:namedview
     id="base"
     pagecolor="#ffffff"
     bordercolor="#666666"
     borderopacity="1.0"
     inkscape:pageopacity="0.0"
     inkscape:pageshadow="2"
     inkscape:zoom="0.5"
     inkscape:cx="-382.53651"
     inkscape:cy="439.10663"
     inkscape:document-units="px"
     inkscape:current-layer="layer1"
     showgrid="false"
     inkscape:window-width="1366"
     inkscape:window-height="715"
     inkscape:window-x="-8"
     inkscape:window-y="-8"
     inkscape:window-maximized="1"
     fit-margin-top="0"
     fit-margin-left="0"
     fit-margin-right="0"
     fit-margin-bottom="0"
     inkscape:snap-to-guides="false"
     inkscape:snap-bbox="false"
     inkscape:bbox-nodes="false"
     inkscape:snap-nodes="true"
     inkscape:snap-global="true"
     showguides="false" />
  <metadata
     id="metadata4153">
    <rdf:RDF>
      <cc:Work
         rdf:about="">
        <dc:format>image/svg+xml</dc:format>
        <dc:type
           rdf:resource="http://purl.org/dc/dcmitype/StillImage" />
        <dc:title />
      </cc:Work>
    </rdf:RDF>
  </metadata>
  <g
     inkscape:label="Layer 1"
     inkscape:groupmode="layer"
     id="layer1"
     transform="translate(-91.214475,-152.15558)">
    <path
       style="opacity:1;fill:#ff9900;fill-opacity:1;fill-rule:nonzero;stroke:none;stroke-width:10;stroke-linecap:butt;stroke-linejoin:round;stroke-miterlimit:4;stroke-dasharray:none;stroke-dashoffset:0;stroke-opacity:1"
       d="M 256 0 A 256 256 0 0 0 0 256 A 256 256 0 0 0 256 512 A 256 256 0 0 0 512 256 A 256 256 0 0 0 256 0 z M 256 12 A 244 244 0 0 1 348.46094 30.328125 A 244.14062 244.14062 0 0 1 351.04297 31.275391 A 244.14062 244.14062 0 0 1 448.5918 106.43359 A 12.754159 12.754159 0 0 0 445.7832 106.09961 A 12.754159 12.754159 0 0 0 433.20117 116.86523 A 9.034196 9.034196 0 0 0 428.30078 115.4082 A 9.034196 9.034196 0 0 0 419.28516 124.02344 A 9.4584708 8.8518401 0 0 0 417.47266 123.85547 A 9.4584708 8.8518401 0 0 0 408.01367 132.70703 A 9.4584708 8.8518401 0 0 0 417.10938 141.54102 L 417.10938 141.55859 L 471.2207 141.55859 L 471.2207 141.45117 A 6.3770794 6.3770794 0 0 0 471.23633 141.45312 A 244 244 0 0 1 472.47266 143.60742 A 244.14062 244.14062 0 0 1 477.39258 154.12305 A 244 244 0 0 1 482.53516 165.60938 A 244.14062 244.14062 0 0 1 486.73242 177.56055 A 244 244 0 0 1 490.37695 188.53516 A 244.14062 244.14062 0 0 1 493.57031 201.70117 A 244 244 0 0 1 495.91211 212.13672 A 244.14062 244.14062 0 0 1 497.89453 226.42578 A 244 244 0 0 1 499.12891 236.59375 A 244.14062 244.14062 0 0 1 499.65039 246.14844 A 244 244 0 0 1 499.80273 250.4043 C 494.87295 236.24345 476.38722 225.71094 454.31055 225.71094 C 394.84225 253.00255 411.21715 231.47034 363.00195 230.59375 C 341.666 237.62543 338.14335 250.57283 325.43555 253.82617 L 311.48438 253.83594 C 305.97413 252.84419 299.23769 250.82558 290.66992 247.41602 C 241.51226 227.85368 207.44426 245.88706 175.79883 253.65039 C 175.38541 253.7518 174.97392 253.8434 174.5625 253.93164 L 156.10352 253.94531 C 132.46812 249.42102 109.71792 229.99499 77.607422 229.61719 C 48.42393 229.61719 23.357118 237.2251 12.394531 248.10156 A 244 244 0 0 1 12.609375 243.80273 A 244.14062 244.14062 0 0 1 14.068359 226.01953 A 244 244 0 0 1 15.056641 219.48438 A 244.14062 244.14062 0 0 1 18.259766 202.06055 A 244 244 0 0 1 19.953125 195.42578 A 244.14062 244.14062 0 0 1 24.796875 178.69336 A 244 244 0 0 1 27.285156 171.87695 A 244.14062 244.14062 0 0 1 33.609375 156.12109 A 244 244 0 0 1 36.972656 149.15625 A 244.14062 244.14062 0 0 1 44.625 134.52539 A 244 244 0 0 1 48.919922 127.51953 A 244.14062 244.14062 0 0 1 57.691406 114.18359 A 244 244 0 0 1 63.087891 107.08594 A 244.14062 244.14062 0 0 1 72.673828 95.273438 A 244 244 0 0 1 79.3125 88.148438 A 244.14062 244.14062 0 0 1 89.439453 77.947266 A 244 244 0 0 1 97.435547 70.921875 A 244.14062 244.14062 0 0 1 107.79883 62.386719 A 244 244 0 0 1 117.26172 55.619141 A 244.14062 244.14062 0 0 1 127.5957 48.714844 A 244 244 0 0 1 138.55859 42.425781 A 244.14062 244.14062 0 0 1 148.6543 37.054688 A 244 244 0 0 1 161.11523 31.476562 A 244.14062 244.14062 0 0 1 170.7168 27.541016 A 244 244 0 0 1 184.78125 22.869141 A 244.14062 244.14062 0 0 1 193.57617 20.253906 A 244 244 0 0 1 209.20117 16.746094 A 244.14062 244.14062 0 0 1 217.05469 15.244141 A 244 244 0 0 1 234.14062 13.169922 A 244.14062 244.14062 0 0 1 241.48438 12.513672 A 244 244 0 0 1 256 12 z M 309.4043 56.005859 A 16.366144 16.366144 0 0 0 293.4707 69.816406 A 11.592685 11.592685 0 0 0 287.17969 67.947266 A 11.592685 11.592685 0 0 0 275.61133 79.001953 A 12.137114 11.358686 0 0 0 273.28516 78.789062 A 12.137114 11.358686 0 0 0 261.14844 90.146484 A 12.137114 11.358686 0 0 0 272.81836 101.48242 L 272.81836 101.50391 L 342.25586 101.50391 L 342.25586 101.36719 A 8.1830712 8.1830712 0 0 0 343.70898 101.50391 A 8.1830712 8.1830712 0 0 0 351.89258 93.322266 A 8.1830712 8.1830712 0 0 0 344.83398 85.226562 A 15.684222 15.684222 0 0 0 345.07227 82.599609 A 15.684222 15.684222 0 0 0 329.39062 66.914062 A 15.684222 15.684222 0 0 0 325.21289 67.482422 A 16.366144 16.366144 0 0 0 309.61328 56.005859 A 16.366144 16.366144 0 0 0 309.4043 56.005859 z M 217.53711 107.66797 A 54.622316 54.622316 0 0 0 164.20312 150.65625 A 20.299534 20.299534 0 0 0 153.96875 147.86133 A 20.299534 20.299534 0 0 0 148.5625 148.59375 A 21.182121 21.182121 0 0 0 128.37305 133.73633 A 21.182121 21.182121 0 0 0 107.47656 151.61328 A 15.004003 15.004003 0 0 0 99.335938 149.19531 A 15.004003 15.004003 0 0 0 84.365234 163.50391 A 15.708639 14.701146 0 0 0 81.355469 163.22461 A 15.708639 14.701146 0 0 0 65.644531 177.92578 A 15.708639 14.701146 0 0 0 80.748047 192.59961 L 80.748047 192.62695 L 170.61719 192.62695 L 170.61719 192.45117 A 10.591061 10.591061 0 0 0 172.15039 192.61328 A 54.622316 54.622316 0 0 0 217.53711 216.91406 A 54.622316 54.622316 0 0 0 272.1582 162.29102 A 54.622316 54.622316 0 0 0 217.53711 107.66797 z M 333.25 141.38477 A 12.754159 12.754159 0 0 0 320.66602 152.15039 A 9.034196 9.034196 0 0 0 315.76758 150.69336 A 9.034196 9.034196 0 0 0 306.75 159.30859 A 9.4584708 8.8518401 0 0 0 304.93945 159.14062 A 9.4584708 8.8518401 0 0 0 295.48047 167.99219 A 9.4584708 8.8518401 0 0 0 304.57617 176.82812 L 304.57617 176.8457 L 358.6875 176.8457 L 358.6875 176.73633 A 6.3770794 6.3770794 0 0 0 359.82227 176.8457 A 6.3770794 6.3770794 0 0 0 366.19727 170.46875 A 6.3770794 6.3770794 0 0 0 360.69727 164.16211 A 12.222736 12.222736 0 0 0 360.88281 162.11133 A 12.222736 12.222736 0 0 0 348.66016 149.88867 A 12.222736 12.222736 0 0 0 345.40625 150.33008 A 12.754159 12.754159 0 0 0 333.25 141.38477 z M 250.6543 313.18945 L 252.05469 313.20312 L 109.39648 450.66797 A 244 244 0 0 1 100.1875 443.66797 C 99.281752 442.91535 98.382135 442.1532 97.486328 441.38672 A 244 244 0 0 1 85.410156 430.13672 L 250.6543 313.18945 z M 252.42188 313.20703 L 259.6875 313.27734 L 395.58984 455.77148 A 244 244 0 0 1 256 500 A 244 244 0 0 1 139.47852 470.35352 C 139.16743 470.18395 138.85725 470.01274 138.54688 469.8418 A 244 244 0 0 1 119.17578 457.96484 C 118.60083 457.57441 118.02302 457.18848 117.45117 456.79297 A 244 244 0 0 1 117.2832 456.66602 L 252.42188 313.20703 z M 260.0918 313.28125 L 261.48438 313.29492 L 426.5918 430.39648 A 244 244 0 0 1 404.07422 449.70312 L 260.0918 313.28125 z M 256 320.7793 L 254.98047 336.61719 L 257.01953 336.61719 L 256 320.7793 z M 254.98047 342.17969 L 253.13281 364.09766 L 258.86719 364.09766 L 257.01953 342.17969 L 254.98047 342.17969 z M 253.13281 373.71875 L 251.16406 407.08203 L 260.83594 407.08203 L 258.86719 373.71875 L 253.13281 373.71875 z M 251.16406 423.93945 L 249.25781 479.23633 L 262.74219 479.23633 L 260.83594 423.93945 L 251.16406 423.93945 z "
       id="path4231"
       transform="translate(91.214475,152.15558)" />
  </g>
</svg>
