<?xml version="1.0" encoding="UTF-8" standalone="no"?>
<!-- Created with Inkscape (http://www.inkscape.org/) -->

<svg
   xmlns:dc="http://purl.org/dc/elements/1.1/"
   xmlns:cc="http://creativecommons.org/ns#"
   xmlns:rdf="http://www.w3.org/1999/02/22-rdf-syntax-ns#"
   xmlns:svg="http://www.w3.org/2000/svg"
   xmlns="http://www.w3.org/2000/svg"
   xmlns:sodipodi="http://sodipodi.sourceforge.net/DTD/sodipodi-0.dtd"
   xmlns:inkscape="http://www.inkscape.org/namespaces/inkscape"
   width="144.49777mm"
   height="144.49777mm"
   viewBox="0 0 511.99998 511.99998"
   id="svg4148"
   version="1.1"
   inkscape:version="0.91 r13725"
   sodipodi:docname="wrist-watch.svg">
  <defs
     id="defs4150">
    <pattern
       y="0"
       x="0"
       height="6"
       width="6"
       patternUnits="userSpaceOnUse"
       id="EMFhbasepattern" />
  </defs>
  <sodipodi:namedview
     id="base"
     pagecolor="#ffffff"
     bordercolor="#666666"
     borderopacity="1.0"
     inkscape:pageopacity="0.0"
     inkscape:pageshadow="2"
     inkscape:zoom="0.70710678"
     inkscape:cx="-36.337206"
     inkscape:cy="243.45212"
     inkscape:document-units="px"
     inkscape:current-layer="layer1"
     showgrid="false"
     inkscape:window-width="1366"
     inkscape:window-height="715"
     inkscape:window-x="-8"
     inkscape:window-y="-8"
     inkscape:window-maximized="1"
     fit-margin-top="0"
     fit-margin-left="0"
     fit-margin-right="0"
     fit-margin-bottom="0"
     inkscape:snap-to-guides="false"
     inkscape:snap-bbox="false"
     inkscape:bbox-nodes="false"
     inkscape:snap-nodes="true"
     inkscape:snap-global="true"
     showguides="false" />
  <metadata
     id="metadata4153">
    <rdf:RDF>
      <cc:Work
         rdf:about="">
        <dc:format>image/svg+xml</dc:format>
        <dc:type
           rdf:resource="http://purl.org/dc/dcmitype/StillImage" />
        <dc:title />
      </cc:Work>
    </rdf:RDF>
  </metadata>
  <g
     inkscape:label="Layer 1"
     inkscape:groupmode="layer"
     id="layer1"
     transform="translate(-91.214475,-152.15558)">
    <path
       style="color:#000000;font-style:normal;font-variant:normal;font-weight:normal;font-stretch:normal;font-size:medium;line-height:normal;font-family:sans-serif;text-indent:0;text-align:start;text-decoration:none;text-decoration-line:none;text-decoration-style:solid;text-decoration-color:#000000;letter-spacing:normal;word-spacing:normal;text-transform:none;direction:ltr;block-progression:tb;writing-mode:lr-tb;baseline-shift:baseline;text-anchor:start;white-space:normal;clip-rule:nonzero;display:inline;overflow:visible;visibility:visible;opacity:1;isolation:auto;mix-blend-mode:normal;color-interpolation:sRGB;color-interpolation-filters:linearRGB;solid-color:#000000;solid-opacity:1;fill:#ec1561;fill-opacity:1;fill-rule:nonzero;stroke:none;stroke-width:15;stroke-linecap:round;stroke-linejoin:round;stroke-miterlimit:4;stroke-dasharray:none;stroke-dashoffset:0;stroke-opacity:1;color-rendering:auto;image-rendering:auto;shape-rendering:auto;text-rendering:auto;enable-background:accumulate"
       d="m 259.17284,158.1564 a 7.3249475,7.3249475 0 0 0 -7.21359,7.42722 l 0,116.77354 c -39.53433,27.84633 -65.39723,73.83613 -65.39723,125.79912 0,51.96299 25.8629,97.95334 65.39723,125.79912 l 0,116.77164 a 7.3249475,7.3249475 0 1 0 14.64843,0 l 0,-107.61447 a 153.78411,153.78411 0 0 1 -0.34904,-0.21553 c 21.98174,12.12575 47.23147,19.03534 74.07948,19.03534 26.70489,0 51.8312,-6.83511 73.73043,-18.84079 l 0,106.30221 a 7.3249475,7.3249475 0 1 0 14.64843,0 l 0,-115.4384 c 35.48706,-24.99511 59.95829,-64.60854 64.59614,-110.04061 a 7.3249475,7.3249475 0 0 0 14.55307,-1.23405 l 0,-29.05082 a 7.3249475,7.3249475 0 0 0 -7.43484,-7.42721 7.3249475,7.3249475 0 0 0 -7.12204,6.16836 c -4.64525,-45.42015 -29.11276,-85.02359 -64.59233,-110.01391 l 0,-115.44031 a 7.3249475,7.3249475 0 0 0 -7.43484,-7.42721 7.3249475,7.3249475 0 0 0 -7.21359,7.42721 l 0,106.28314 a 153.78411,153.78411 0 0 1 0.34332,0.21171 c -21.98013,-12.12366 -47.22853,-19.03342 -74.07375,-19.03342 -26.70544,0 -51.8309,6.83438 -73.73044,18.84078 l 0,-107.63544 a 7.3249475,7.3249475 0 0 0 -7.43484,-7.42722 z m 81.16528,110.87031 c 76.92508,0 139.12766,62.20448 139.12766,139.12957 0,76.92509 -62.20258,139.12767 -139.12766,139.12767 -76.92508,0 -139.12767,-62.20258 -139.12767,-139.12767 0,-76.92509 62.20259,-139.12957 139.12767,-139.12957 z m -0.11063,28.99741 a 7.3249475,7.3249475 0 0 0 -7.21359,7.42721 l 0,101.31831 a 7.3249475,7.3249475 0 0 0 0.042,0.83923 7.3249475,7.3249475 0 0 0 7.40433,7.87163 l 86.2617,0 a 7.3249475,7.3249475 0 1 0 0,-14.64844 l -79.05956,0 0,-95.38073 a 7.3249475,7.3249475 0 0 0 -7.43484,-7.42721 z"
       id="path4135"
       inkscape:connector-curvature="0" />
  </g>
</svg>
